# This file uses centimeters as units for non-parametric coordinates.

mtllib COLA.mtl
g default
v -6.205982 1.025279 -1.236267
v -5.794018 1.025279 -1.236267
v -6.205982 1.488231 -1.127787
v -5.794018 1.488231 -1.127787
v -6.154846 1.038897 -2.360873
v -5.845154 1.038897 -2.360873
v -6.154846 0.725528 -2.360873
v -5.845154 0.725528 -2.360873
v -6.000000 1.488231 -1.127787
v -6.000000 1.038897 -2.360873
v -6.000000 0.725528 -2.360873
v -6.000000 1.025279 -1.236267
v -6.205982 1.419044 -1.697619
v -6.205982 1.002188 -1.697619
v -6.000000 1.002188 -1.697619
v -5.794018 1.002188 -1.697619
v -5.794018 1.419044 -1.697619
v -6.000000 1.419044 -1.697619
v -6.205982 1.245418 -1.098769
v -6.205982 1.210616 -1.697619
v -6.154846 0.882213 -2.360873
v -6.000000 0.882213 -2.360873
v -5.845154 0.882213 -2.360873
v -5.794018 1.210616 -1.697619
v -5.794018 1.245418 -1.098769
v -6.000000 1.245418 -1.098769
v -6.205982 1.558955 -1.271264
v -6.205982 1.333334 -1.256754
v -6.205982 1.119051 -1.325503
v -6.000000 1.119051 -1.325503
v -5.794018 1.119051 -1.325503
v -5.794018 1.333334 -1.256754
v -5.794018 1.558955 -1.271264
v -6.000000 1.558955 -1.271264
v -6.205982 1.563027 -1.354759
v -6.205982 1.346003 -1.347505
v -6.205982 1.134647 -1.381879
v -6.000000 1.134647 -1.381879
v -5.794018 1.134647 -1.381879
v -5.794018 1.346003 -1.347505
v -5.794018 1.563027 -1.354759
v -6.000000 1.563027 -1.354759
v -6.205982 1.521670 -1.199525
v -6.205982 1.287452 -1.177762
v -6.205982 1.070241 -1.280885
v -6.000000 1.070241 -1.280885
v -5.794018 1.070241 -1.280885
v -5.794018 1.287452 -1.177762
v -5.794018 1.521670 -1.199525
v -6.000000 1.521670 -1.199525
v -6.205982 1.561014 -1.433588
v -6.205982 1.348288 -1.429961
v -6.205982 1.138396 -1.447148
v -6.000000 1.138396 -1.447148
v -5.794018 1.138396 -1.447148
v -5.794018 1.348288 -1.429961
v -5.794018 1.561014 -1.433588
v -6.000000 1.561014 -1.433588
v -6.205982 1.524623 -1.528891
v -6.205982 1.314046 -1.527077
v -6.205982 1.104886 -1.535671
v -6.000000 1.104886 -1.535671
v -5.794018 1.104886 -1.535671
v -5.794018 1.314046 -1.527077
v -5.794018 1.524623 -1.528891
v -6.000000 1.524623 -1.528891
v -6.205982 1.495408 -1.602902
v -6.205982 1.285906 -1.601996
v -6.205982 1.077112 -1.606292
v -6.000000 1.077112 -1.606292
v -5.794018 1.077112 -1.606292
v -5.794018 1.285906 -1.601996
v -5.794018 1.495408 -1.602902
v -6.000000 1.495408 -1.602902
v -6.205982 1.463223 -1.649421
v -6.205982 1.254258 -1.648968
v -6.205982 1.045647 -1.651117
v -6.000000 1.045647 -1.651117
v -5.794018 1.045647 -1.651117
v -5.794018 1.254258 -1.648968
v -5.794018 1.463223 -1.649421
v -6.000000 1.463223 -1.649421
v -6.205982 1.363121 -1.760555
v -6.205982 1.154693 -1.760555
v -6.205982 0.946265 -1.760555
v -6.000000 0.946265 -1.760555
v -5.794018 0.946265 -1.760555
v -5.794018 1.154693 -1.760555
v -5.794018 1.363121 -1.760555
v -6.000000 1.363121 -1.760555
v -6.205982 1.276605 -1.818655
v -6.205982 1.068177 -1.818655
v -6.205982 0.859749 -1.818655
v -6.000000 0.859749 -1.818655
v -5.794018 0.859749 -1.818655
v -5.794018 1.068177 -1.818655
v -5.794018 1.276605 -1.818655
v -6.000000 1.276605 -1.818655
v -6.205982 1.194035 -1.867161
v -6.205982 0.985607 -1.867161
v -6.205982 0.777179 -1.867161
v -6.000000 0.777179 -1.867161
v -5.794018 0.777179 -1.867161
v -5.794018 0.985607 -1.867161
v -5.794018 1.194035 -1.867161
v -6.000000 1.194035 -1.867161
v -6.205982 1.084382 -1.944089
v -6.205982 0.875954 -1.944089
v -6.205982 0.667526 -1.944089
v -6.000000 0.667526 -1.944089
v -5.794018 0.667526 -1.944089
v -5.794018 0.875954 -1.944089
v -5.794018 1.084382 -1.944089
v -6.000000 1.084382 -1.944089
v -6.205982 1.010779 -2.017819
v -6.205982 0.802351 -2.017819
v -6.205982 0.593923 -2.017819
v -6.000000 0.593923 -2.017819
v -5.794018 0.593923 -2.017819
v -5.794018 0.802351 -2.017819
v -5.794018 1.010779 -2.017819
v -6.000000 1.010779 -2.017819
v -6.205982 0.950419 -2.070016
v -6.205982 0.741991 -2.070016
v -6.205982 0.533562 -2.070016
v -6.000000 0.533562 -2.070016
v -5.794018 0.533562 -2.070016
v -5.794018 0.741991 -2.070016
v -5.794018 0.950419 -2.070016
v -6.000000 0.950419 -2.070016
v -6.205982 0.913258 -2.122087
v -6.205982 0.721960 -2.122087
v -6.205982 0.517992 -2.122087
v -6.000000 0.517992 -2.122087
v -5.794018 0.517992 -2.122087
v -5.794018 0.721960 -2.122087
v -5.794018 0.913258 -2.122087
v -6.000000 0.913258 -2.122087
v -6.205982 0.899505 -2.190122
v -6.205982 0.701355 -2.190122
v -6.205982 0.518201 -2.190122
v -6.000000 0.518201 -2.190122
v -5.794018 0.518201 -2.190122
v -5.794018 0.701355 -2.190122
v -5.794018 0.899505 -2.190122
v -6.000000 0.899505 -2.190122
v -5.819586 0.903222 -2.247359
v -6.000000 0.903222 -2.247359
v -6.180414 0.903222 -2.247359
v -6.180414 0.720666 -2.247359
v -6.180414 0.538110 -2.247359
v -6.000000 0.538110 -2.247359
v -5.819586 0.538110 -2.247359
v -5.819586 0.720666 -2.247359
v -5.832370 0.624932 -2.317895
v -6.000000 0.624932 -2.317895
v -6.167630 0.624932 -2.317895
v -6.167630 0.794553 -2.317895
v -6.167630 0.964173 -2.317895
v -6.000000 0.964173 -2.317895
v -5.832370 0.964173 -2.317895
v -5.832370 0.794553 -2.317895
v -5.825978 0.926264 -2.282627
v -6.000000 0.926264 -2.282627
v -6.174022 0.926264 -2.282627
v -6.174022 0.750175 -2.282627
v -6.174022 0.574087 -2.282627
v -6.000000 0.574087 -2.282627
v -5.825978 0.574087 -2.282627
v -5.825978 0.750175 -2.282627
vt 0.375000 0.000000
vt 0.625000 0.000000
vt 0.375000 0.250000
vt 0.625000 0.250000
vt 0.375000 0.500000
vt 0.625000 0.500000
vt 0.375000 0.750000
vt 0.625000 0.750000
vt 0.375000 1.000000
vt 0.625000 1.000000
vt 0.875000 0.000000
vt 0.875000 0.250000
vt 0.125000 0.000000
vt 0.125000 0.250000
vt 0.500000 0.250000
vt 0.500000 0.500000
vt 0.500000 0.750000
vt 0.500000 0.000000
vt 0.500000 1.000000
vt 0.250000 0.250000
vt 0.375000 0.375000
vt 0.250000 0.000000
vt 0.375000 0.875000
vt 0.500000 0.875000
vt 0.625000 0.875000
vt 0.750000 0.000000
vt 0.625000 0.375000
vt 0.750000 0.250000
vt 0.500000 0.375000
vt 0.375000 0.125000
vt 0.250000 0.125000
vt 0.125000 0.125000
vt 0.375000 0.625000
vt 0.500000 0.625000
vt 0.625000 0.625000
vt 0.875000 0.125000
vt 0.750000 0.125000
vt 0.625000 0.125000
vt 0.500000 0.125000
vt 0.312500 0.250000
vt 0.375000 0.312500
vt 0.312500 0.125000
vt 0.312500 0.000000
vt 0.375000 0.937500
vt 0.500000 0.937500
vt 0.625000 0.937500
vt 0.687500 0.000000
vt 0.687500 0.125000
vt 0.625000 0.312500
vt 0.687500 0.250000
vt 0.500000 0.312500
vt 0.281250 0.250000
vt 0.375000 0.343750
vt 0.281250 0.125000
vt 0.281250 0.000000
vt 0.375000 0.906250
vt 0.500000 0.906250
vt 0.625000 0.906250
vt 0.718750 0.000000
vt 0.718750 0.125000
vt 0.625000 0.343750
vt 0.718750 0.250000
vt 0.500000 0.343750
vt 0.343750 0.250000
vt 0.375000 0.281250
vt 0.343750 0.125000
vt 0.343750 0.000000
vt 0.375000 0.968750
vt 0.500000 0.968750
vt 0.625000 0.968750
vt 0.656250 0.000000
vt 0.656250 0.125000
vt 0.625000 0.281250
vt 0.656250 0.250000
vt 0.500000 0.281250
vt 0.265625 0.250000
vt 0.375000 0.359375
vt 0.265625 0.125000
vt 0.265625 0.000000
vt 0.375000 0.890625
vt 0.500000 0.890625
vt 0.625000 0.890625
vt 0.734375 0.000000
vt 0.734375 0.125000
vt 0.625000 0.359375
vt 0.734375 0.250000
vt 0.500000 0.359375
vt 0.257812 0.250000
vt 0.375000 0.367188
vt 0.257812 0.125000
vt 0.257812 0.000000
vt 0.375000 0.882812
vt 0.500000 0.882812
vt 0.625000 0.882812
vt 0.742188 0.000000
vt 0.742188 0.125000
vt 0.625000 0.367188
vt 0.742188 0.250000
vt 0.500000 0.367188
vt 0.253906 0.250000
vt 0.375000 0.371094
vt 0.253906 0.125000
vt 0.253906 0.000000
vt 0.375000 0.878906
vt 0.500000 0.878906
vt 0.625000 0.878906
vt 0.746094 0.000000
vt 0.746094 0.125000
vt 0.625000 0.371094
vt 0.746094 0.250000
vt 0.500000 0.371094
vt 0.251953 0.250000
vt 0.375000 0.373047
vt 0.251953 0.125000
vt 0.251953 0.000000
vt 0.375000 0.876953
vt 0.500000 0.876953
vt 0.625000 0.876953
vt 0.748047 0.000000
vt 0.748047 0.125000
vt 0.625000 0.373047
vt 0.748047 0.250000
vt 0.500000 0.373047
vt 0.187500 0.250000
vt 0.375000 0.437500
vt 0.187500 0.125000
vt 0.187500 0.000000
vt 0.375000 0.812500
vt 0.500000 0.812500
vt 0.625000 0.812500
vt 0.812500 0.000000
vt 0.812500 0.125000
vt 0.625000 0.437500
vt 0.812500 0.250000
vt 0.500000 0.437500
vt 0.156250 0.250000
vt 0.375000 0.468750
vt 0.156250 0.125000
vt 0.156250 0.000000
vt 0.375000 0.781250
vt 0.500000 0.781250
vt 0.625000 0.781250
vt 0.843750 0.000000
vt 0.843750 0.125000
vt 0.625000 0.468750
vt 0.843750 0.250000
vt 0.500000 0.468750
vt 0.140625 0.250000
vt 0.375000 0.484375
vt 0.140625 0.125000
vt 0.140625 0.000000
vt 0.375000 0.765625
vt 0.500000 0.765625
vt 0.625000 0.765625
vt 0.859375 0.000000
vt 0.859375 0.125000
vt 0.625000 0.484375
vt 0.859375 0.250000
vt 0.500000 0.484375
vt 0.132812 0.250000
vt 0.375000 0.492188
vt 0.132812 0.125000
vt 0.132812 0.000000
vt 0.375000 0.757812
vt 0.500000 0.757812
vt 0.625000 0.757812
vt 0.867188 0.000000
vt 0.867188 0.125000
vt 0.625000 0.492188
vt 0.867188 0.250000
vt 0.500000 0.492188
vt 0.128906 0.250000
vt 0.375000 0.496094
vt 0.128906 0.125000
vt 0.128906 0.000000
vt 0.375000 0.753906
vt 0.500000 0.753906
vt 0.625000 0.753906
vt 0.871094 0.000000
vt 0.871094 0.125000
vt 0.625000 0.496094
vt 0.871094 0.250000
vt 0.500000 0.496094
vt 0.126953 0.250000
vt 0.375000 0.498047
vt 0.126953 0.125000
vt 0.126953 0.000000
vt 0.375000 0.751953
vt 0.500000 0.751953
vt 0.625000 0.751953
vt 0.873047 0.000000
vt 0.873047 0.125000
vt 0.625000 0.498047
vt 0.873047 0.250000
vt 0.500000 0.498047
vt 0.125977 0.250000
vt 0.375000 0.499023
vt 0.125977 0.125000
vt 0.125977 0.000000
vt 0.375000 0.750977
vt 0.500000 0.750977
vt 0.625000 0.750977
vt 0.874023 0.000000
vt 0.874023 0.125000
vt 0.625000 0.499023
vt 0.874023 0.250000
vt 0.500000 0.499023
vt 0.125488 0.250000
vt 0.375000 0.499512
vt 0.125488 0.125000
vt 0.125488 0.000000
vt 0.375000 0.750488
vt 0.500000 0.750488
vt 0.625000 0.750488
vt 0.874512 0.000000
vt 0.874512 0.125000
vt 0.625000 0.499512
vt 0.874512 0.250000
vt 0.500000 0.499512
vt 0.625000 0.499756
vt 0.874756 0.250000
vt 0.500000 0.499756
vt 0.125244 0.250000
vt 0.375000 0.499756
vt 0.125244 0.125000
vt 0.125244 0.000000
vt 0.375000 0.750244
vt 0.500000 0.750244
vt 0.625000 0.750244
vt 0.874756 0.000000
vt 0.874756 0.125000
vt 0.625000 0.750122
vt 0.874878 0.000000
vt 0.500000 0.750122
vt 0.125122 0.000000
vt 0.375000 0.750122
vt 0.125122 0.125000
vt 0.125122 0.250000
vt 0.375000 0.499878
vt 0.500000 0.499878
vt 0.625000 0.499878
vt 0.874878 0.250000
vt 0.874878 0.125000
vt 0.625000 0.499817
vt 0.874817 0.250000
vt 0.500000 0.499817
vt 0.125183 0.250000
vt 0.375000 0.499817
vt 0.125183 0.125000
vt 0.125183 0.000000
vt 0.375000 0.750183
vt 0.500000 0.750183
vt 0.625000 0.750183
vt 0.874817 0.000000
vt 0.874817 0.125000
vn 0.000000 -0.529753 0.848152
vn 0.000000 -0.529753 0.848152
vn 0.000000 -0.228142 0.973628
vn 0.000000 -0.228142 0.973628
vn 0.000000 0.906375 0.422474
vn 0.000000 0.906375 0.422474
vn 0.000000 0.896950 0.442132
vn 0.000000 0.896950 0.442132
vn 0.000000 0.000000 -1.000000
vn 0.000000 0.000000 -1.000000
vn 0.000000 0.000000 -1.000000
vn 0.000000 0.000000 -1.000000
vn 0.000000 -0.689373 -0.724407
vn 0.000000 -0.689373 -0.724407
vn 0.000000 -0.704387 -0.709816
vn 0.000000 -0.704387 -0.709816
vn 1.000000 0.000003 0.000000
vn 1.000000 0.000001 0.000000
vn 1.000000 -0.000000 0.000000
vn 1.000000 0.000001 0.000000
vn -1.000000 -0.000001 0.000000
vn -1.000000 0.000000 0.000000
vn -1.000000 -0.000001 0.000000
vn -1.000000 -0.000001 0.000000
vn 0.000000 0.906375 0.422474
vn 0.000000 0.896950 0.442132
vn 0.000000 0.000000 -1.000000
vn 0.000000 0.000000 -1.000000
vn 0.000000 -0.689373 -0.724407
vn 0.000000 -0.704387 -0.709816
vn 0.000000 -0.529753 0.848152
vn 0.000000 -0.228142 0.973628
vn -1.000000 0.000000 0.000000
vn -1.000000 0.000000 0.000000
vn -1.000000 0.000000 0.000000
vn -1.000000 0.000000 0.000000
vn 0.000000 -0.647532 0.762038
vn 0.000000 -0.647532 0.762038
vn 0.000000 -0.740300 0.672276
vn 0.000000 -0.740300 0.672276
vn 0.000000 -0.740300 0.672276
vn 0.000000 -0.647532 0.762038
vn 1.000000 0.000000 0.000000
vn 1.000000 0.000000 0.000000
vn 1.000000 0.000000 0.000000
vn 1.000000 0.000000 0.000000
vn 0.000000 0.743020 -0.669269
vn 0.000000 0.743020 -0.669269
vn 0.000000 0.647532 -0.762038
vn 0.000000 0.647532 -0.762038
vn 0.000000 0.743020 -0.669269
vn 0.000000 0.647532 -0.762038
vn -1.000000 -0.000002 0.000000
vn -1.000000 -0.000001 0.000000
vn -1.000000 0.000000 0.000000
vn -1.000000 0.000000 0.000000
vn 0.000000 0.000000 -1.000000
vn 0.000000 0.000000 -1.000000
vn 0.000000 0.000000 -1.000000
vn 1.000000 0.000000 0.000000
vn 1.000000 0.000000 0.000000
vn 1.000000 -0.000001 0.000000
vn 1.000000 -0.000003 0.000000
vn 0.000000 0.118664 0.992935
vn 0.000000 0.118664 0.992935
vn 0.000000 0.118664 0.992935
vn -1.000000 -0.000000 0.000000
vn -1.000000 -0.000000 0.000000
vn -1.000000 0.000000 0.000000
vn -1.000000 -0.000000 0.000000
vn -1.000000 -0.000000 0.000000
vn -1.000000 -0.000001 0.000000
vn 0.000000 -0.987589 -0.157059
vn 0.000000 -0.987589 -0.157059
vn 0.000000 -0.843143 -0.537689
vn 0.000000 -0.843144 -0.537689
vn 0.000000 -0.843144 -0.537689
vn 0.000000 -0.987589 -0.157059
vn 1.000000 -0.000000 0.000000
vn 1.000000 -0.000001 0.000000
vn 1.000000 -0.000001 0.000000
vn 1.000000 0.000000 0.000000
vn 1.000000 0.000000 0.000000
vn 1.000000 0.000001 0.000000
vn 0.000000 0.966294 0.257442
vn 0.000000 0.966294 0.257442
vn 0.000000 0.999920 0.012686
vn 0.000000 0.999920 0.012686
vn 0.000000 0.966294 0.257442
vn 0.000000 0.999920 0.012686
vn -1.000000 0.000001 0.000000
vn -1.000000 0.000000 0.000000
vn -1.000000 0.000001 0.000000
vn 0.000000 -0.981786 0.189992
vn 0.000000 -0.981786 0.189992
vn 0.000000 -0.981786 0.189992
vn 1.000000 -0.000001 0.000000
vn 1.000000 -0.000000 0.000000
vn 1.000000 0.000001 0.000000
vn 0.000000 0.976532 -0.215372
vn 0.000000 0.976532 -0.215372
vn 0.000000 0.976532 -0.215372
vn -1.000000 0.000001 0.000000
vn -1.000000 0.000001 0.000000
vn -1.000000 0.000001 0.000000
vn 0.000000 -0.933198 0.359362
vn 0.000000 -0.933198 0.359362
vn 0.000000 -0.933198 0.359362
vn 1.000000 0.000000 0.000000
vn 1.000000 0.000000 0.000000
vn 1.000000 0.000000 0.000000
vn 0.000000 0.932448 -0.361305
vn 0.000000 0.932448 -0.361305
vn 0.000000 0.932448 -0.361305
vn -1.000000 -0.000000 0.000000
vn -1.000000 -0.000001 0.000000
vn -1.000000 0.000001 0.000000
vn 0.000000 -0.889705 0.456537
vn 0.000000 -0.889705 0.456537
vn 0.000000 -0.889705 0.456537
vn 1.000000 0.000000 0.000000
vn 1.000000 0.000000 0.000000
vn 1.000000 0.000000 0.000000
vn 0.000000 0.891047 -0.453911
vn 0.000000 0.891047 -0.453911
vn 0.000000 0.891047 -0.453911
vn -1.000000 -0.000000 0.000000
vn -1.000000 -0.000001 0.000000
vn -1.000000 0.000000 0.000000
vn 0.000000 -0.773118 0.634263
vn 0.000000 -0.773118 0.634262
vn 0.000000 -0.773118 0.634263
vn 1.000000 0.000000 0.000000
vn 1.000000 0.000000 0.000000
vn 1.000000 0.000000 0.000000
vn 0.000000 0.778494 -0.627652
vn 0.000000 0.778494 -0.627652
vn 0.000000 0.778494 -0.627652
vn -1.000000 0.000000 0.000000
vn -1.000000 0.000000 0.000000
vn -1.000000 0.000000 0.000000
vn 0.000000 -0.533332 0.845906
vn 0.000000 -0.533332 0.845906
vn 0.000000 -0.533332 0.845906
vn 1.000000 0.000000 0.000000
vn 1.000000 0.000000 0.000000
vn 1.000000 0.000000 0.000000
vn 0.000000 0.533332 -0.845906
vn 0.000000 0.533332 -0.845906
vn 0.000000 0.533332 -0.845906
vn -1.000000 0.000000 0.000000
vn -1.000000 0.000000 0.000000
vn -1.000000 0.000000 0.000000
vn 0.000000 -0.546486 0.837468
vn 0.000000 -0.546486 0.837468
vn 0.000000 -0.546486 0.837468
vn 1.000000 0.000000 0.000000
vn 1.000000 0.000000 0.000000
vn 1.000000 0.000000 0.000000
vn 0.000000 0.546485 -0.837469
vn 0.000000 0.546485 -0.837469
vn 0.000000 0.546485 -0.837469
vn -1.000000 0.000000 0.000000
vn -1.000000 0.000000 0.000000
vn -1.000000 0.000000 0.000000
vn 0.000000 -0.635057 0.772465
vn 0.000000 -0.635057 0.772465
vn 0.000000 -0.635057 0.772465
vn 1.000000 0.000000 0.000000
vn 1.000000 0.000000 0.000000
vn 1.000000 0.000000 0.000000
vn 0.000000 0.635057 -0.772465
vn 0.000000 0.635057 -0.772465
vn 0.000000 0.635057 -0.772465
vn -1.000000 0.000000 0.000000
vn -1.000000 0.000000 0.000000
vn -1.000000 0.000000 0.000000
vn 0.000000 -0.684914 0.728624
vn 0.000000 -0.684914 0.728623
vn 0.000000 -0.684914 0.728624
vn 1.000000 0.000000 0.000000
vn 1.000000 0.000000 0.000000
vn 1.000000 0.000000 0.000000
vn 0.000000 0.684915 -0.728623
vn 0.000000 0.684915 -0.728623
vn 0.000000 0.684915 -0.728623
vn -1.000000 0.000000 0.000000
vn -1.000000 0.000000 0.000000
vn -1.000000 0.000000 0.000000
vn 0.000000 -0.808371 0.588674
vn 0.000000 -0.808371 0.588674
vn 0.000000 -0.808371 0.588674
vn 1.000000 0.000000 0.000000
vn 1.000000 0.000000 0.000000
vn 1.000000 0.000000 0.000000
vn 0.000000 0.730343 -0.683080
vn 0.000000 0.730343 -0.683080
vn 0.000000 0.730343 -0.683080
vn -1.000000 0.000000 0.000000
vn -1.000000 0.000000 0.000000
vn -1.000000 0.000000 0.000000
vn 0.000000 -0.991920 0.126863
vn 0.000000 -0.991920 0.126863
vn 0.000000 -0.991920 0.126863
vn 1.000000 0.000000 0.000000
vn 1.000000 0.000000 0.000000
vn 1.000000 0.000000 0.000000
vn 0.000000 0.920693 -0.390289
vn 0.000000 0.920693 -0.390289
vn 0.000000 0.920693 -0.390289
vn -0.980702 0.000000 -0.195511
vn -0.981972 0.000000 -0.189029
vn -0.985201 0.000000 -0.171405
vn 0.000000 -0.991554 -0.129691
vn 0.000000 -0.988181 -0.153292
vn 0.000000 -0.991554 -0.129691
vn 0.985201 0.000000 -0.171405
vn 0.980702 0.000000 -0.195511
vn 0.981972 0.000000 -0.189028
vn 0.000000 0.994607 -0.103712
vn 0.000000 0.996461 -0.084052
vn 0.000000 0.994607 -0.103712
vn -0.944382 0.000000 -0.328851
vn -0.950502 0.000000 -0.310717
vn -0.930622 0.000000 -0.365982
vn 0.000000 -0.878131 -0.478420
vn 0.000000 -0.861045 -0.508529
vn 0.000000 -0.878131 -0.478420
vn 0.930622 0.000000 -0.365982
vn 0.944382 0.000000 -0.328851
vn 0.950503 0.000000 -0.310717
vn 0.000000 0.973685 0.227900
vn 0.000000 0.963608 0.267321
vn 0.000000 0.973685 0.227900
vn 0.000000 0.573090 0.819492
vn 0.000000 0.580918 0.813962
vn 0.000000 0.498575 0.866847
vn 0.000000 0.498575 0.866847
vn 0.000000 0.580918 0.813962
vn 0.000000 0.498575 0.866847
vn -0.958493 0.000000 -0.285115
vn -0.971631 0.000000 -0.236501
vn -0.964456 0.000000 -0.264243
vn -0.958493 0.000000 -0.285115
vn -0.958493 0.000000 -0.285116
vn -0.980609 0.000000 -0.195977
vn 0.000000 -0.392883 -0.919589
vn 0.000000 -0.392883 -0.919589
vn 0.000000 -0.461452 -0.887165
vn 0.000000 -0.467471 -0.884009
vn 0.000000 -0.467471 -0.884009
vn 0.000000 -0.392883 -0.919589
vn 0.971631 0.000000 -0.236500
vn 0.980609 0.000000 -0.195977
vn 0.958493 0.000000 -0.285116
vn 0.958493 0.000000 -0.285115
vn 0.964456 0.000000 -0.264243
vn 0.958493 0.000000 -0.285115
vn 0.000000 -0.631749 -0.775173
vn 0.000000 -0.636486 -0.771288
vn 0.000000 -0.636486 -0.771288
vn -0.983970 0.000000 -0.178335
vn -0.983968 0.000000 -0.178342
vn -0.983971 0.000000 -0.178331
vn 0.000000 0.758097 0.652141
vn 0.000000 0.764919 0.644127
vn 0.000000 0.764918 0.644127
vn 0.983970 0.000000 -0.178336
vn 0.983971 0.000000 -0.178331
vn 0.983968 0.000000 -0.178343
s 1
g pCube1
usemtl initialShadingGroup
f 1/1/1 12/18/2 26/39/3 19/30/4
s 2
f 3/3/5 9/15/6 50/75/7 43/65/8
s 3
f 21/33/9 22/34/10 11/17/11 7/7/12
s 4
f 45/68/13 46/69/14 12/19/15 1/9/16
s 5
f 2/2/17 47/71/18 48/72/19 25/38/20
s 6
f 45/67/21 1/1/22 19/30/23 44/66/24
s 2
f 9/15/6 4/4/25 49/73/26 50/75/7
s 3
f 11/17/11 22/34/10 23/35/27 8/8/28
s 4
f 12/19/15 46/69/14 47/70/29 2/10/30
s 1
f 26/39/3 12/18/2 2/2/31 25/38/32
s 6
f 85/127/33 14/22/34 20/31/35 84/126/36
s 4
f 85/128/37 86/129/38 15/24/39 14/23/40
f 16/25/41 15/24/39 86/129/38 87/130/42
s 5
f 24/37/43 16/26/44 87/131/45 88/132/46
s 2
f 18/29/47 17/27/48 89/133/49 90/135/50
f 13/21/51 18/29/47 90/135/50 83/125/52
s 6
f 44/66/24 19/30/23 3/3/53 43/64/54
f 84/126/36 20/31/35 13/20/55 83/124/56
s 3
f 5/5/57 10/16/58 22/34/10 21/33/9
f 23/35/27 22/34/10 10/16/58 6/6/59
s 5
f 17/28/60 24/37/43 88/132/46 89/134/61
f 25/38/20 48/72/19 49/74/62 4/4/63
s 1
f 9/15/64 26/39/3 25/38/32 4/4/65
f 19/30/4 26/39/3 9/15/64 3/3/66
s 6
f 36/54/67 28/42/68 27/40/69 35/52/70
f 37/55/71 29/43/72 28/42/68 36/54/67
s 4
f 37/56/73 38/57/74 30/45/75 29/44/76
f 31/46/77 30/45/75 38/57/74 39/58/78
s 5
f 32/48/79 31/47/80 39/59/81 40/60/82
f 33/50/83 32/48/79 40/60/82 41/62/84
s 2
f 34/51/85 33/49/86 41/61/87 42/63/88
f 27/41/89 34/51/85 42/63/88 35/53/90
s 6
f 52/78/91 36/54/67 35/52/70 51/76/92
f 53/79/93 37/55/71 36/54/67 52/78/91
s 4
f 53/80/94 54/81/95 38/57/74 37/56/73
f 39/58/78 38/57/74 54/81/95 55/82/96
s 5
f 40/60/82 39/59/81 55/83/97 56/84/98
f 41/62/84 40/60/82 56/84/98 57/86/99
s 2
f 42/63/88 41/61/87 57/85/100 58/87/101
f 35/53/90 42/63/88 58/87/101 51/77/102
s 6
f 28/42/68 44/66/24 43/64/54 27/40/69
f 29/43/72 45/67/21 44/66/24 28/42/68
s 4
f 29/44/76 30/45/75 46/69/14 45/68/13
f 47/70/29 46/69/14 30/45/75 31/46/77
s 5
f 48/72/19 47/71/18 31/47/80 32/48/79
f 49/74/62 48/72/19 32/48/79 33/50/83
s 2
f 50/75/7 49/73/26 33/49/86 34/51/85
f 43/65/8 50/75/7 34/51/85 27/41/89
s 6
f 60/90/103 52/78/91 51/76/92 59/88/104
f 61/91/105 53/79/93 52/78/91 60/90/103
s 4
f 61/92/106 62/93/107 54/81/95 53/80/94
f 55/82/96 54/81/95 62/93/107 63/94/108
s 5
f 56/84/98 55/83/97 63/95/109 64/96/110
f 57/86/99 56/84/98 64/96/110 65/98/111
s 2
f 58/87/101 57/85/100 65/97/112 66/99/113
f 51/77/102 58/87/101 66/99/113 59/89/114
s 6
f 68/102/115 60/90/103 59/88/104 67/100/116
f 69/103/117 61/91/105 60/90/103 68/102/115
s 4
f 69/104/118 70/105/119 62/93/107 61/92/106
f 63/94/108 62/93/107 70/105/119 71/106/120
s 5
f 64/96/110 63/95/109 71/107/121 72/108/122
f 65/98/111 64/96/110 72/108/122 73/110/123
s 2
f 66/99/113 65/97/112 73/109/124 74/111/125
f 59/89/114 66/99/113 74/111/125 67/101/126
s 6
f 76/114/127 68/102/115 67/100/116 75/112/128
f 77/115/129 69/103/117 68/102/115 76/114/127
s 4
f 77/116/130 78/117/131 70/105/119 69/104/118
f 71/106/120 70/105/119 78/117/131 79/118/132
s 5
f 72/108/122 71/107/121 79/119/133 80/120/134
f 73/110/123 72/108/122 80/120/134 81/122/135
s 2
f 74/111/125 73/109/124 81/121/136 82/123/137
f 67/101/126 74/111/125 82/123/137 75/113/138
s 6
f 20/31/35 76/114/127 75/112/128 13/20/55
f 14/22/34 77/115/129 76/114/127 20/31/35
s 4
f 14/23/40 15/24/39 78/117/131 77/116/130
f 79/118/132 78/117/131 15/24/39 16/25/41
s 5
f 80/120/134 79/119/133 16/26/44 24/37/43
f 81/122/135 80/120/134 24/37/43 17/28/60
s 2
f 82/123/137 81/121/136 17/27/48 18/29/47
f 75/113/138 82/123/137 18/29/47 13/21/51
s 6
f 92/138/139 84/126/36 83/124/56 91/136/140
f 93/139/141 85/127/33 84/126/36 92/138/139
s 4
f 93/140/142 94/141/143 86/129/38 85/128/37
f 87/130/42 86/129/38 94/141/143 95/142/144
s 5
f 88/132/46 87/131/45 95/143/145 96/144/146
f 89/134/61 88/132/46 96/144/146 97/146/147
s 2
f 90/135/50 89/133/49 97/145/148 98/147/149
f 83/125/52 90/135/50 98/147/149 91/137/150
s 6
f 100/150/151 92/138/139 91/136/140 99/148/152
f 101/151/153 93/139/141 92/138/139 100/150/151
s 4
f 101/152/154 102/153/155 94/141/143 93/140/142
f 95/142/144 94/141/143 102/153/155 103/154/156
s 5
f 96/144/146 95/143/145 103/155/157 104/156/158
f 97/146/147 96/144/146 104/156/158 105/158/159
s 2
f 98/147/149 97/145/148 105/157/160 106/159/161
f 91/137/150 98/147/149 106/159/161 99/149/162
s 6
f 108/162/163 100/150/151 99/148/152 107/160/164
f 109/163/165 101/151/153 100/150/151 108/162/163
s 4
f 109/164/166 110/165/167 102/153/155 101/152/154
f 103/154/156 102/153/155 110/165/167 111/166/168
s 5
f 104/156/158 103/155/157 111/167/169 112/168/170
f 105/158/159 104/156/158 112/168/170 113/170/171
s 2
f 106/159/161 105/157/160 113/169/172 114/171/173
f 99/149/162 106/159/161 114/171/173 107/161/174
s 6
f 116/174/175 108/162/163 107/160/164 115/172/176
f 117/175/177 109/163/165 108/162/163 116/174/175
s 4
f 117/176/178 118/177/179 110/165/167 109/164/166
f 111/166/168 110/165/167 118/177/179 119/178/180
s 5
f 112/168/170 111/167/169 119/179/181 120/180/182
f 113/170/171 112/168/170 120/180/182 121/182/183
s 2
f 114/171/173 113/169/172 121/181/184 122/183/185
f 107/161/174 114/171/173 122/183/185 115/173/186
s 6
f 124/186/187 116/174/175 115/172/176 123/184/188
f 125/187/189 117/175/177 116/174/175 124/186/187
s 4
f 125/188/190 126/189/191 118/177/179 117/176/178
f 119/178/180 118/177/179 126/189/191 127/190/192
s 5
f 120/180/182 119/179/181 127/191/193 128/192/194
f 121/182/183 120/180/182 128/192/194 129/194/195
s 2
f 122/183/185 121/181/184 129/193/196 130/195/197
f 115/173/186 122/183/185 130/195/197 123/185/198
s 6
f 132/198/199 124/186/187 123/184/188 131/196/200
f 133/199/201 125/187/189 124/186/187 132/198/199
s 4
f 133/200/202 134/201/203 126/189/191 125/188/190
f 127/190/192 126/189/191 134/201/203 135/202/204
s 5
f 128/192/194 127/191/193 135/203/205 136/204/206
f 129/194/195 128/192/194 136/204/206 137/206/207
s 2
f 130/195/197 129/193/196 137/205/208 138/207/209
f 123/185/198 130/195/197 138/207/209 131/197/210
s 6
f 140/210/211 132/198/199 131/196/200 139/208/212
f 141/211/213 133/199/201 132/198/199 140/210/211
s 4
f 141/212/214 142/213/215 134/201/203 133/200/202
f 135/202/204 134/201/203 142/213/215 143/214/216
s 5
f 136/204/206 135/203/205 143/215/217 144/216/218
f 137/206/207 136/204/206 144/216/218 145/218/219
s 2
f 138/207/209 137/205/208 145/217/220 146/219/221
f 131/197/210 138/207/209 146/219/221 139/209/222
s 6
f 150/225/223 140/210/211 139/208/212 149/223/224
f 151/226/225 141/211/213 140/210/211 150/225/223
s 4
f 151/227/226 152/228/227 142/213/215 141/212/214
f 143/214/216 142/213/215 152/228/227 153/229/228
s 5
f 144/216/218 143/215/217 153/230/229 154/231/230
f 145/218/219 144/216/218 154/231/230 147/221/231
s 2
f 146/219/221 145/217/220 147/220/232 148/222/233
f 139/209/222 146/219/221 148/222/233 149/224/234
f 160/240/235 161/241/236 6/6/237 10/16/238
f 159/239/239 160/240/235 10/16/238 5/5/240
s 6
f 21/32/241 158/237/242 159/238/243 5/14/244
f 7/13/245 157/235/246 158/237/242 21/32/241
s 4
f 7/7/247 11/17/248 156/234/249 157/236/250
f 155/232/251 156/234/249 11/17/248 8/8/252
s 5
f 162/243/253 155/233/254 8/11/255 23/36/256
f 161/242/257 162/243/253 23/36/256 6/12/258
s 4
f 153/229/228 152/228/227 168/252/259 169/253/260
f 167/251/261 168/252/259 152/228/227 151/227/226
s 6
f 166/249/262 167/250/263 151/226/225 150/225/223
f 165/247/264 166/249/262 150/225/223 149/223/224
s 2
f 149/224/234 148/222/233 164/246/265 165/248/266
f 148/222/233 147/220/232 163/244/267 164/246/265
s 5
f 147/221/231 154/231/230 170/255/268 163/245/269
f 154/231/230 153/230/229 169/254/270 170/255/268
s 2
f 164/246/265 163/244/267 161/241/236 160/240/235
f 165/248/266 164/246/265 160/240/235 159/239/239
s 6
f 159/238/243 158/237/242 166/249/262 165/247/264
f 158/237/242 157/235/246 167/250/263 166/249/262
s 4
f 157/236/250 156/234/249 168/252/259 167/251/261
f 169/253/260 168/252/259 156/234/249 155/232/251
s 5
f 170/255/268 169/254/270 155/233/254 162/243/253
f 163/245/269 170/255/268 162/243/253 161/242/257
