# This file uses centimeters as units for non-parametric coordinates.

mtllib Linterna.mtl
g default
v 6.559837 0.081783 -0.784327
v 6.559837 0.358826 -0.784327
v 6.878446 0.358826 -0.784327
v 6.878446 0.081783 -0.784327
v 6.559837 0.081783 -0.219411
v 6.878446 0.081783 -0.219411
v 6.878446 0.358826 -0.219411
v 6.559837 0.358826 -0.219411
v 6.878446 0.476701 -0.104913
v 6.559837 0.476701 -0.104913
v 6.512810 0.399717 -0.070364
v 6.925472 0.399717 -0.070364
vt 0.125000 0.000000
vt 0.375000 0.000000
vt 0.375000 0.250000
vt 0.125000 0.250000
vt 0.375000 0.750000
vt 0.593116 0.750000
vt 0.593116 1.000000
vt 0.375000 1.000000
vt 0.375000 0.500000
vt 0.593116 0.500000
vt 0.593116 0.250000
vt 0.593116 0.000000
vt 0.000000 0.000000
vt 1.000000 0.000000
vt 1.146962 1.229932
vt -0.146152 1.251052
vt 0.000000 0.000000
vt 1.000000 0.000000
vt 0.810447 0.556446
vt 0.000000 0.000000
vt 1.000000 0.000000
vt 0.189553 0.556446
vn -0.000000 0.000000 -1.000000
vn -0.000000 0.000000 -1.000000
vn -0.000000 0.000000 -1.000000
vn -0.000000 0.000000 -1.000000
vn 0.000000 -1.000000 0.000000
vn 0.000000 -1.000000 0.000000
vn 0.000000 -1.000000 0.000000
vn 0.000000 -1.000000 0.000000
vn 1.000000 0.000000 -0.000000
vn 1.000000 0.000000 -0.000000
vn 1.000000 0.000000 -0.000000
vn 1.000000 0.000000 -0.000000
vn 0.000000 1.000000 0.000000
vn 0.000000 1.000000 0.000000
vn 0.000000 1.000000 0.000000
vn 0.000000 1.000000 0.000000
vn -1.000000 0.000000 0.000000
vn -1.000000 0.000000 0.000000
vn -1.000000 0.000000 0.000000
vn -1.000000 0.000000 0.000000
vn 0.000000 0.409440 0.912337
vn 0.000000 0.409440 0.912337
vn 0.000000 0.409440 0.912337
vn 0.000000 0.409440 0.912337
vn 0.857620 0.358330 -0.368900
vn 0.857620 0.358330 -0.368901
vn 0.857620 0.358330 -0.368901
vn -0.857620 0.358330 -0.368901
vn -0.857620 0.358330 -0.368901
vn -0.857620 0.358330 -0.368901
s off
g Linterna_Cuerpo
usemtl initialShadingGroup
f 4/1/1 1/2/2 2/3/3 3/4/4
f 4/5/5 6/6/6 5/7/7 1/8/8
f 3/9/9 7/10/10 6/6/11 4/5/12
f 2/3/13 8/11/14 7/10/15 3/9/16
f 1/2/17 5/12/18 8/11/19 2/3/20
f 9/13/21 10/14/22 11/15/23 12/16/24
f 7/17/25 9/18/26 12/19/27
f 10/20/28 8/21/29 11/22/30
g default
v 6.465783 -0.000000 0.078684
v 6.465783 0.440608 0.078684
v 6.972499 0.440608 0.078684
v 6.972499 -0.000000 0.078684
v 6.526751 0.061311 0.099220
v 6.526751 0.379297 0.099220
v 6.911531 0.379297 0.099220
v 6.911531 0.061311 0.099220
v 6.542965 0.077443 0.002927
v 6.542965 0.363165 0.002927
v 6.895318 0.363165 0.002927
v 6.895318 0.077443 0.002927
v 6.626785 0.161275 0.031084
v 6.626785 0.279334 0.031084
v 6.811497 0.279334 0.031084
v 6.811497 0.161275 0.031084
v 6.559837 0.358826 -0.219411
v 6.559837 0.081783 -0.219411
v 6.512810 0.399717 -0.070364
v 6.878446 0.358826 -0.219411
v 6.925472 0.399717 -0.070364
v 6.878446 0.081783 -0.219411
vt 0.593116 0.250000
vt 0.593116 0.000000
vt 0.625000 0.000000
vt 0.625000 0.250000
vt 0.609060 0.250028
vt 0.593116 0.500000
vt 0.625000 0.500000
vt 0.609060 0.499972
vt 0.593116 0.750000
vt 0.625000 0.750000
vt 0.593116 1.000000
vt 0.625000 1.000000
vt 0.000000 0.000000
vt 1.000000 0.000000
vt 1.000000 1.000000
vt 0.000000 1.000000
vt 0.000000 0.000000
vt 1.000000 0.000000
vt 1.000000 1.000000
vt 0.000000 1.000000
vt 0.000000 0.000000
vt 1.000000 0.000000
vt 1.000000 1.000000
vt 0.000000 1.000000
vt 0.000000 0.000000
vt 1.000000 0.000000
vt 1.000000 1.000000
vt 0.000000 1.000000
vt 0.000000 0.000000
vt 1.000000 0.000000
vt 1.000000 1.000000
vt 0.000000 1.000000
vt 0.000000 0.000000
vt 1.000000 0.000000
vt 1.000000 1.000000
vt 0.000000 1.000000
vt 0.000000 0.000000
vt 1.000000 0.000000
vt 1.000000 1.000000
vt 0.000000 1.000000
vt 0.000000 0.000000
vt 1.000000 0.000000
vt 1.000000 1.000000
vt 0.000000 1.000000
vt 0.000000 0.000000
vt 1.000000 0.000000
vt 1.000000 1.000000
vt 0.000000 1.000000
vt 0.000000 0.000000
vt 1.000000 0.000000
vt 1.000000 1.000000
vt 0.000000 1.000000
vt 0.000000 0.000000
vt 1.000000 0.000000
vt 1.000000 1.000000
vt 0.000000 1.000000
vt 0.000000 0.000000
vt 1.000000 0.000000
vt 1.000000 1.000000
vt 0.000000 1.000000
vn -0.953658 0.000000 -0.300894
vn -0.953658 0.000000 -0.300894
vn -0.953658 0.000000 -0.300894
vn -0.953658 0.000000 -0.300894
vn -0.953658 0.000000 -0.300894
vn 0.000000 0.964365 -0.264575
vn 0.000000 0.964365 -0.264575
vn 0.000000 0.964365 -0.264575
vn 0.000000 0.964365 -0.264575
vn 0.000000 0.964365 -0.264575
vn 0.000000 0.964365 -0.264575
vn 0.953658 0.000000 -0.300894
vn 0.953658 0.000000 -0.300894
vn 0.953658 0.000000 -0.300894
vn 0.953658 0.000000 -0.300894
vn 0.953658 0.000000 -0.300894
vn -0.000000 -0.964365 -0.264575
vn -0.000000 -0.964365 -0.264575
vn -0.000000 -0.964365 -0.264575
vn -0.000000 -0.964365 -0.264575
vn -0.149651 0.177025 0.972762
vn -0.149651 -0.177025 0.972762
vn -0.150372 -0.176313 0.972780
vn -0.150372 0.176313 0.972780
vn 0.149651 0.177025 0.972763
vn 0.150373 0.176313 0.972780
vn 0.149651 -0.177025 0.972763
vn 0.150373 -0.176313 0.972780
vn 0.986120 0.000000 0.166037
vn 0.986120 0.000000 0.166037
vn 0.986120 0.000000 0.166037
vn 0.986120 0.000000 0.166037
vn 0.000000 -0.986256 0.165224
vn 0.000000 -0.986256 0.165224
vn 0.000000 -0.986256 0.165224
vn 0.000000 -0.986256 0.165224
vn -0.986120 0.000000 0.166037
vn -0.986120 0.000000 0.166037
vn -0.986120 0.000000 0.166037
vn -0.986120 0.000000 0.166037
vn 0.000000 0.986256 0.165224
vn 0.000000 0.986256 0.165224
vn 0.000000 0.986256 0.165224
vn 0.000000 0.986256 0.165224
vn -0.140169 0.186467 0.972411
vn -0.140169 -0.186467 0.972411
vn -0.140186 -0.186450 0.972412
vn -0.140186 0.186450 0.972412
vn 0.140169 0.186467 0.972411
vn 0.140186 0.186450 0.972412
vn 0.140169 -0.186467 0.972411
vn 0.140186 -0.186450 0.972412
s off
g Linterna_Cuerpo Linterna_Cab
usemtl initialShadingGroup
f 29/23/31 30/24/32 13/25/33 14/26/34 31/27/35
f 32/28/36 29/23/37 31/27/38 14/26/39 15/29/40 33/30/41
f 34/31/42 32/28/43 33/30/44 15/29/45 16/32/46
f 30/33/47 34/31/48 16/32/49 13/34/50
s 1
f 14/35/51 13/36/52 17/37/53 18/38/54
f 15/39/55 14/40/51 18/41/54 19/42/56
f 16/43/57 15/44/55 19/45/56 20/46/58
f 13/47/52 16/48/57 20/49/58 17/50/53
s off
f 18/51/59 17/52/60 21/53/61 22/54/62
f 19/55/63 18/56/64 22/57/65 23/58/66
f 20/59/67 19/60/68 23/61/69 24/62/70
f 17/63/71 20/64/72 24/65/73 21/66/74
s 2
f 22/67/75 21/68/76 25/69/77 26/70/78
f 23/71/79 22/72/75 26/73/78 27/74/80
f 24/75/81 23/76/79 27/77/80 28/78/82
f 21/79/76 24/80/81 28/81/82 25/82/77
g default
v 6.620684 0.155176 0.082639
v 6.620684 0.285432 0.082639
v 6.817598 0.285432 0.082639
v 6.817598 0.155176 0.082639
v 6.626785 0.279334 0.031084
v 6.626785 0.161275 0.031084
v 6.811497 0.279334 0.031084
v 6.811497 0.161275 0.031084
vt 0.000000 0.000000
vt 1.000000 0.000000
vt 1.000000 1.000000
vt 0.000000 1.000000
vt 0.000000 0.000000
vt 1.000000 0.000000
vt 1.000000 1.000000
vt 0.000000 1.000000
vt 0.000000 0.000000
vt 1.000000 0.000000
vt 1.000000 1.000000
vt 0.000000 1.000000
vt 0.000000 0.000000
vt 1.000000 0.000000
vt 1.000000 1.000000
vt 0.000000 1.000000
vn -0.993070 0.000000 -0.117523
vn -0.993070 0.000000 -0.117523
vn -0.993070 0.000000 -0.117523
vn -0.993070 0.000000 -0.117523
vn -0.000000 0.993076 -0.117478
vn -0.000000 0.993076 -0.117478
vn -0.000000 0.993076 -0.117478
vn -0.000000 0.993076 -0.117478
vn 0.993071 0.000000 -0.117514
vn 0.993071 0.000000 -0.117514
vn 0.993071 0.000000 -0.117514
vn 0.993071 0.000000 -0.117514
vn -0.000000 -0.993076 -0.117477
vn -0.000000 -0.993076 -0.117477
vn -0.000000 -0.993076 -0.117477
vn -0.000000 -0.993076 -0.117477
vn 0.000000 0.000000 1.000000
vn 0.000000 0.000000 1.000000
vn 0.000000 0.000000 1.000000
vn 0.000000 0.000000 1.000000
s off
g Linterna_Cuerpo Foco
usemtl initialShadingGroup
f 39/83/83 40/84/84 35/85/85 36/86/86
f 41/87/87 39/88/88 36/89/89 37/90/90
f 42/91/91 41/92/92 37/93/93 38/94/94
f 40/95/95 42/96/96 38/97/97 35/98/98
f 36/86/99 35/98/100 38/94/101 37/90/102
g default
v 6.878446 0.358826 -0.219411
v 6.559837 0.358826 -0.219411
v 6.559837 0.476701 -0.104913
v 6.878446 0.476701 -0.104913
vt 0.000000 0.000000
vt 1.000000 0.000000
vt 1.000000 1.000000
vt 0.000000 1.000000
vn -0.000000 0.696755 -0.717309
vn -0.000000 0.696755 -0.717309
vn -0.000000 0.696755 -0.717309
vn -0.000000 0.696755 -0.717309
s off
g Linterna_Cuerpo Foto
usemtl initialShadingGroup
f 43/99/103 44/100/104 45/101/105 46/102/106
