# This file uses centimeters as units for non-parametric coordinates.

mtllib Zana.mtl
g default
v 1.297139 0.297139 -0.393981
v 1.702861 0.297139 -0.393981
v 1.702861 0.702861 -0.393981
v 1.297139 0.702861 -0.393981
v 1.347854 0.347854 -0.292550
v 1.652146 0.347854 -0.292550
v 1.652146 0.652146 -0.292550
v 1.347854 0.652146 -0.292550
v 1.720773 0.500000 -0.355287
v 1.665580 0.500000 -0.244901
v 1.334420 0.500000 -0.244901
v 1.279227 0.500000 -0.355287
v 1.500000 0.293893 -0.355287
v 1.500000 0.345420 -0.244901
v 1.500000 0.654580 -0.244901
v 1.500000 0.706107 -0.355287
v 1.658863 0.576073 -0.268726
v 1.711817 0.601431 -0.374634
v 1.288183 0.601431 -0.374634
v 1.341137 0.576073 -0.268726
v 1.658863 0.423927 -0.268726
v 1.711817 0.398569 -0.374634
v 1.288183 0.398569 -0.374634
v 1.341137 0.423927 -0.268726
v 1.423927 0.346637 -0.268726
v 1.398569 0.295516 -0.374634
v 1.398569 0.704484 -0.374634
v 1.423927 0.653363 -0.268726
v 1.576073 0.346637 -0.268726
v 1.601431 0.295516 -0.374634
v 1.601431 0.704484 -0.374634
v 1.576073 0.653363 -0.268726
vt 0.437500 0.000000
vt 0.500000 0.000000
vt 0.500000 0.000000
vt 0.437500 0.000000
vt 0.625000 0.062500
vt 0.625000 0.125000
vt 0.625000 0.125000
vt 0.625000 0.062500
vt 0.500000 0.250000
vt 0.437500 0.250000
vt 0.437500 0.250000
vt 0.500000 0.250000
vt 0.375000 0.125000
vt 0.375000 0.062500
vt 0.375000 0.062500
vt 0.375000 0.125000
vt 0.625000 0.187500
vt 0.625000 0.187500
vt 0.625000 0.250000
vt 0.625000 0.250000
vt 0.375000 0.250000
vt 0.375000 0.187500
vt 0.375000 0.187500
vt 0.375000 0.250000
vt 0.562500 0.000000
vt 0.562500 0.000000
vt 0.625000 0.000000
vt 0.625000 0.000000
vt 0.562500 0.250000
vt 0.562500 0.250000
vt 0.375000 0.000000
vt 0.375000 0.000000
vn -0.125923 -0.878982 0.459928
vn 0.000000 -0.897837 0.440329
vn 0.000000 -0.897837 0.440329
vn -0.123529 -0.884587 0.449718
vn 0.856325 -0.192191 0.479343
vn 0.885278 -0.000000 0.465063
vn 0.885278 -0.000000 0.465063
vn 0.861900 -0.190404 0.469973
vn -0.000000 0.897837 0.440329
vn -0.125923 0.878982 0.459929
vn -0.123529 0.884587 0.449718
vn -0.000000 0.897837 0.440329
vn -0.885278 0.000000 0.465063
vn -0.856325 -0.192191 0.479343
vn -0.861900 -0.190404 0.469973
vn -0.885278 0.000000 0.465063
vn 0.861900 0.190404 0.469973
vn 0.856325 0.192191 0.479343
vn 0.846721 0.195141 0.494957
vn 0.846721 0.195141 0.494957
vn -0.846721 0.195141 0.494957
vn -0.856325 0.192191 0.479343
vn -0.861900 0.190404 0.469973
vn -0.846721 0.195141 0.494957
vn 0.123529 -0.884587 0.449718
vn 0.125923 -0.878982 0.459928
vn 0.129452 -0.870409 0.475005
vn 0.129452 -0.870409 0.475005
vn 0.129452 0.870409 0.475006
vn 0.125923 0.878982 0.459929
vn 0.123529 0.884587 0.449718
vn 0.129452 0.870409 0.475006
vn 0.846721 -0.195141 0.494958
vn 0.846721 -0.195141 0.494958
vn -0.846721 -0.195141 0.494958
vn -0.846721 -0.195141 0.494958
vn -0.129452 -0.870409 0.475006
vn -0.129452 -0.870409 0.475006
vn -0.129452 0.870409 0.475006
vn -0.129452 0.870409 0.475006
s 1
g polySurface21 polySurface20 polySurface18 polySurface16 polySurface14 polySurface12 polySurface10 polySurface8 polySurface6 polySurface3 polySurface1 pCube2
usemtl initialShadingGroup
f 26/1/1 13/2/2 14/3/3 25/4/4
s 2
f 22/5/5 9/6/6 10/7/7 21/8/8
s 3
f 16/9/9 27/10/10 28/11/11 15/12/12
s 4
f 12/13/13 23/14/14 24/15/15 11/16/16
s 2
f 17/17/17 18/18/18 3/19/19 7/20/20
s 4
f 4/21/21 19/22/22 20/23/23 8/24/24
s 1
f 29/25/25 30/26/26 2/27/27 6/28/28
s 3
f 3/19/29 31/29/30 32/30/31 7/20/32
s 2
f 10/7/7 9/6/6 18/18/18 17/17/17
s 4
f 20/23/23 19/22/22 12/13/13 11/16/16
s 2
f 2/27/33 22/5/5 21/8/8 6/28/34
s 4
f 24/15/15 23/14/14 1/31/35 5/32/36
s 1
f 1/31/37 26/1/1 25/4/4 5/32/38
s 3
f 28/11/11 27/10/10 4/21/39 8/24/40
s 1
f 14/3/3 13/2/2 30/26/26 29/25/25
s 3
f 32/30/31 31/29/30 16/9/9 15/12/12
g default
v 1.025207 0.025207 -1.034924
v 1.974793 0.025207 -1.034924
v 1.025207 0.974793 -1.034924
v 1.974793 0.974793 -1.034924
v 1.025207 0.974793 -1.717064
v 1.974793 0.974793 -1.717064
v 1.025207 0.025207 -1.717064
v 1.974793 0.025207 -1.717064
v 1.043562 0.043562 -0.901134
v 1.956438 0.043562 -0.901134
v 1.956438 0.956438 -0.901134
v 1.043562 0.956438 -0.901134
v 1.433414 0.433414 -0.141874
v 1.566586 0.433414 -0.141874
v 1.566586 0.566586 -0.141874
v 1.433414 0.566586 -0.141874
v 1.500000 0.500000 0.003782
v 0.983285 0.500000 -1.052822
v 0.983285 0.500000 -1.717064
v 2.016715 0.500000 -1.717064
v 2.016715 0.500000 -1.052822
v 1.996738 0.500000 -0.907219
v 1.572465 0.500000 -0.099868
v 1.427535 0.500000 -0.099868
v 1.003262 0.500000 -0.907219
v 1.500000 0.982389 -1.052822
v 1.500000 0.982389 -1.717064
v 1.500000 0.017611 -1.717064
v 1.500000 0.017611 -1.052822
v 1.500000 0.036260 -0.907219
v 1.500000 0.432349 -0.099868
v 1.500000 0.567651 -0.099868
v 1.500000 0.963740 -0.907219
v 0.956445 1.043555 -1.710314
v 1.500000 1.052251 -1.710314
v 0.956445 -0.043555 -1.710314
v 1.500000 -0.052251 -1.710314
v 0.908452 0.500000 -1.710314
v 2.043555 1.043555 -1.710314
v 2.091548 0.500000 -1.710314
v 2.043555 -0.043555 -1.710314
v 1.569525 0.533293 -0.120871
v 1.976588 0.728219 -0.904176
v 1.995754 0.737397 -1.043873
v 1.995754 0.737397 -1.717064
v 2.067551 0.771778 -1.710314
v 0.932449 0.771778 -1.710314
v 1.004246 0.737397 -1.717064
v 1.004246 0.737397 -1.043873
v 1.023412 0.728219 -0.904176
v 1.430475 0.533293 -0.120871
v 1.569525 0.466707 -0.120871
v 1.976588 0.271781 -0.904176
v 1.995754 0.262603 -1.043873
v 1.995754 0.262603 -1.717064
v 2.067551 0.228222 -1.710314
v 0.932449 0.228222 -1.710314
v 1.004246 0.262603 -1.717064
v 1.004246 0.262603 -1.043873
v 1.023412 0.271781 -0.904176
v 1.430475 0.466707 -0.120871
v 1.466707 0.432882 -0.120871
v 1.271781 0.039911 -0.904176
v 1.262603 0.021409 -1.043873
v 1.262603 0.021409 -1.717064
v 1.228222 -0.047903 -1.710314
v 1.228222 1.047903 -1.710314
v 1.262603 0.978591 -1.717064
v 1.262603 0.978591 -1.043873
v 1.271781 0.960089 -0.904176
v 1.466707 0.567118 -0.120871
v 1.533293 0.432882 -0.120871
v 1.728219 0.039911 -0.904176
v 1.737397 0.021409 -1.043873
v 1.737397 0.021409 -1.717064
v 1.771778 -0.047903 -1.710314
v 1.771778 1.047903 -1.710314
v 1.737397 0.978591 -1.717064
v 1.737397 0.978591 -1.043873
v 1.728219 0.960089 -0.904176
v 1.533293 0.567118 -0.120871
vt 0.437500 0.250000
vt 0.500000 0.250000
vt 0.625000 0.062500
vt 0.625000 0.125000
vt 0.375000 0.062500
vt 0.375000 0.125000
vt 0.437500 0.000000
vt 0.500000 0.000000
vt 0.500000 0.000000
vt 0.437500 0.000000
vt 0.625000 0.125000
vt 0.625000 0.062500
vt 0.500000 0.250000
vt 0.437500 0.250000
vt 0.375000 0.125000
vt 0.375000 0.062500
vt 0.500000 0.000000
vt 0.437500 0.000000
vt 0.625000 0.125000
vt 0.625000 0.062500
vt 0.437500 0.250000
vt 0.500000 0.250000
vt 0.375000 0.062500
vt 0.375000 0.125000
vt 0.375000 0.000000
vt 0.416667 0.041667
vt 0.625000 0.000000
vt 0.625000 0.062500
vt 0.375000 0.250000
vt 0.500000 0.250000
vt 0.375000 0.187500
vt 0.375000 0.250000
vt 0.625000 0.187500
vt 0.625000 0.250000
vt 0.625000 0.187500
vt 0.625000 0.250000
vt 0.625000 0.187500
vt 0.625000 0.250000
vt 0.375000 0.187500
vt 0.375000 0.250000
vt 0.375000 0.187500
vt 0.562500 0.250000
vt 0.562500 0.000000
vt 0.562500 0.000000
vt 0.625000 0.000000
vt 0.625000 0.000000
vt 0.562500 0.000000
vt 0.562500 0.250000
vt 0.562500 0.250000
vt 0.500000 0.000000
vt 1.000000 0.000000
vt 1.000000 0.000000
vt 0.500000 0.000000
vt 0.500000 0.000000
vt 0.500000 0.000000
vt 1.000000 0.000000
vt 1.000000 0.000000
vt 0.000000 0.000000
vt 0.000000 0.000000
vt 0.500000 0.000000
vt 0.500000 0.000000
vt 0.000000 0.000000
vt 0.500000 0.000000
vt 0.500000 0.000000
vt 0.000000 0.000000
vt 0.000000 0.000000
vt 0.000000 0.000000
vt 0.500000 0.000000
vt 0.500000 0.000000
vt 0.000000 0.000000
vt 0.500000 0.000000
vt 0.500000 0.000000
vt 0.000000 0.000000
vt 0.500000 0.000000
vt 1.000000 0.000000
vt 1.000000 0.000000
vt 0.500000 0.000000
vt 0.500000 0.000000
vt 0.500000 0.000000
vt 1.000000 0.000000
vt 1.000000 0.000000
vt 1.000000 0.000000
vt 1.000000 0.000000
vt 1.000000 0.000000
vt 1.000000 0.000000
vt 1.000000 0.000000
vt 1.000000 0.000000
vt 1.000000 0.000000
vt 1.000000 0.000000
vt 0.375000 0.000000
vt 0.375000 0.000000
vt 0.000000 0.000000
vt 0.000000 0.000000
vt 0.000000 0.000000
vt 0.000000 0.000000
vt 0.000000 0.000000
vt 0.000000 0.000000
vt 0.000000 0.000000
vt 0.000000 0.000000
vn -0.012454 -0.991153 0.132136
vn 0.000000 -0.991576 0.129525
vn 0.000000 -0.991576 0.129525
vn -0.012458 -0.991170 0.132010
vn 0.986505 -0.083475 0.140857
vn 0.990353 -0.000000 0.138570
vn 0.990353 -0.000000 0.138570
vn 0.986518 -0.083478 0.140759
vn 0.000000 0.991576 0.129525
vn 0.000000 0.991576 0.129525
vn -0.012454 0.991153 0.132137
vn -0.012458 0.991170 0.132011
vn -0.990353 0.000000 0.138570
vn -0.990353 0.000000 0.138570
vn -0.986505 -0.083475 0.140857
vn -0.986518 -0.083478 0.140759
vn -0.337223 -0.788362 0.514554
vn -0.337223 -0.788362 0.514554
vn -0.000000 -0.837414 0.546570
vn -0.000000 -0.837414 0.546570
vn 0.751859 -0.397995 0.525651
vn 0.751859 -0.397995 0.525651
vn 0.819565 -0.000000 0.572987
vn 0.819565 -0.000000 0.572987
vn 0.000000 0.837413 0.546570
vn -0.337223 0.788362 0.514555
vn -0.337223 0.788362 0.514555
vn 0.000000 0.837413 0.546570
vn -0.819565 0.000000 0.572987
vn -0.751859 -0.397994 0.525651
vn -0.751859 -0.397994 0.525651
vn -0.819565 0.000000 0.572987
vn 0.986518 0.083478 0.140759
vn 0.986505 0.083475 0.140857
vn 0.986106 0.083366 0.143683
vn 0.986106 0.083366 0.143683
vn 0.751859 0.397994 0.525651
vn 0.751858 0.397994 0.525651
vn -0.751859 0.397995 0.525651
vn -0.751859 0.397994 0.525651
vn -0.986106 0.083367 0.143683
vn -0.986505 0.083475 0.140857
vn -0.986518 0.083478 0.140759
vn -0.986106 0.083367 0.143683
vn 0.012458 -0.991170 0.132011
vn 0.012454 -0.991153 0.132137
vn 0.012381 -0.990799 0.134776
vn 0.012381 -0.990799 0.134776
vn 0.337223 -0.788362 0.514554
vn 0.337223 -0.788362 0.514554
vn 0.337223 0.788362 0.514555
vn 0.337223 0.788362 0.514555
vn 0.012381 0.990799 0.134776
vn 0.012454 0.991153 0.132137
vn 0.012458 0.991170 0.132011
vn 0.012381 0.990799 0.134776
vn 0.001539 -0.096166 0.995364
vn 0.001539 -0.096166 0.995364
vn 0.001539 -0.096166 0.995364
vn 0.001539 -0.096166 0.995364
vn 0.001539 0.096166 0.995364
vn 0.001539 0.096166 0.995364
vn 0.001539 0.096166 0.995364
vn 0.001539 0.096166 0.995364
vn 0.089828 -0.007931 0.995926
vn 0.089828 -0.007931 0.995926
vn 0.089828 -0.007931 0.995926
vn 0.089828 -0.007931 0.995926
vn -0.089828 -0.007931 0.995926
vn -0.089828 -0.007931 0.995926
vn -0.089828 -0.007931 0.995926
vn -0.089828 -0.007931 0.995926
vn 0.089828 0.007931 0.995926
vn 0.089828 0.007931 0.995926
vn 0.089828 0.007931 0.995926
vn 0.089828 0.007931 0.995926
vn -0.089828 0.007931 0.995926
vn -0.089828 0.007931 0.995926
vn -0.089828 0.007931 0.995926
vn -0.089828 0.007931 0.995926
vn -0.001539 -0.096166 0.995364
vn -0.001539 -0.096166 0.995364
vn -0.001539 -0.096166 0.995364
vn -0.001539 -0.096166 0.995364
vn -0.001539 0.096166 0.995364
vn -0.001539 0.096166 0.995364
vn -0.001539 0.096166 0.995364
vn -0.001539 0.096166 0.995364
vn -0.089828 -0.007931 0.995926
vn -0.089828 -0.007931 0.995926
vn 0.089828 -0.007931 0.995926
vn 0.089828 -0.007931 0.995926
vn 0.986106 -0.083367 0.143683
vn 0.986106 -0.083367 0.143683
vn -0.089828 0.007931 0.995926
vn -0.089828 0.007931 0.995926
vn 0.089828 0.007931 0.995926
vn 0.089828 0.007931 0.995926
vn -0.986106 -0.083366 0.143683
vn -0.986106 -0.083366 0.143683
vn -0.012381 -0.990799 0.134776
vn -0.012381 -0.990799 0.134776
vn 0.001539 0.096166 0.995364
vn 0.001539 0.096166 0.995364
vn 0.001539 -0.096166 0.995364
vn 0.001539 -0.096166 0.995364
vn -0.012381 0.990799 0.134776
vn -0.012381 0.990799 0.134776
vn -0.001539 0.096166 0.995364
vn -0.001539 0.096166 0.995364
vn -0.001539 -0.096166 0.995364
vn -0.001539 -0.096166 0.995364
s 1
g polySurface20 polySurface18 polySurface16 polySurface14 polySurface12 polySurface10 polySurface8 polySurface6 polySurface3 polySurface1 pCube2 polySurface22
usemtl initialShadingGroup
f 96/39/41 61/40/42 62/41/43 95/42/44
s 2
f 86/35/45 53/36/46 54/43/47 85/44/48
s 3
f 65/45/49 58/34/50 101/33/51 102/46/52
s 4
f 57/47/53 50/38/54 91/37/55 92/48/56
s 5
f 45/57/57 94/50/58 63/49/59 49/58/60
s 6
f 46/59/61 84/52/62 55/51/63 49/60/64
s 7
f 64/54/65 103/53/66 48/61/67 49/62/68
s 8
f 56/56/69 93/55/70 45/57/71 49/58/72
s 2
f 75/67/73 76/65/74 36/66/75 43/68/76
s 6
f 49/60/64 55/51/63 74/69/77 47/70/78
s 8
f 48/61/79 83/71/80 56/56/69 49/58/72
s 4
f 35/64/81 81/63/82 82/73/83 44/72/84
s 1
f 105/75/85 106/76/86 34/77/87 42/78/88
s 5
f 49/58/60 63/49/59 104/79/89 46/59/90
s 7
f 47/70/91 113/80/92 64/54/65 49/62/68
s 3
f 36/66/93 111/74/94 112/81/95 43/68/96
s 9
f 100/82/97 59/83/98 67/84/99 99/85/100
s 10
f 97/86/101 98/87/102 69/88/103 60/89/104
s 11
f 37/90/105 66/91/106 79/92/107 80/93/108
s 12
f 38/94/109 77/95/110 78/96/111 71/97/112
s 13
f 51/98/113 70/99/114 89/100/115 90/101/116
s 14
f 52/102/117 87/103/118 88/104/119 72/105/120
s 15
f 110/106/121 38/107/122 71/108/123 109/109/124
s 16
f 107/110/125 108/111/126 73/112/127 40/113/128
s 2
f 54/43/47 53/36/46 76/65/74 75/67/73
s 12
f 78/96/111 77/95/110 52/114/129 72/115/130
s 11
f 80/93/108 79/92/107 70/116/131 51/117/132
s 4
f 82/73/83 81/63/82 50/38/54 57/47/53
s 2
f 34/77/133 86/35/45 85/44/48 42/78/134
s 14
f 88/104/119 87/103/118 40/118/135 73/119/136
s 13
f 90/101/116 89/100/115 68/120/137 39/121/138
s 4
f 92/48/56 91/37/55 33/122/139 41/123/140
s 1
f 33/122/141 96/39/41 95/42/44 41/123/142
s 10
f 39/124/143 68/125/144 98/87/102 97/86/101
s 9
f 37/126/145 100/82/97 99/85/100 66/127/146
s 3
f 102/46/52 101/33/51 35/64/147 44/72/148
s 1
f 62/41/43 61/40/42 106/76/86 105/75/85
s 16
f 60/128/149 69/129/150 108/111/126 107/110/125
s 15
f 59/130/151 110/106/121 109/109/124 67/131/152
s 3
f 112/81/95 111/74/94 58/34/50 65/45/49
g default
v 1.500000 1.052251 -2.017111
v 1.500000 -0.052251 -2.017111
v 0.956445 -0.043555 -2.017111
v 0.908452 0.500000 -2.017111
v 2.091548 0.500000 -2.017111
v 2.043555 1.043555 -2.017111
v 2.067551 0.771778 -2.017111
v 0.932449 0.771778 -2.017111
v 2.067551 0.228222 -2.017111
v 0.932449 0.228222 -2.017111
v 1.228222 -0.047903 -2.017111
v 1.228222 1.047903 -2.017111
v 1.771778 -0.047903 -2.017111
v 1.771778 1.047903 -2.017111
v 1.228222 1.047903 -1.710314
v 1.500000 1.052251 -1.710314
v 1.500000 -0.052251 -1.710314
v 1.228222 -0.047903 -1.710314
v 0.956445 1.043555 -2.017111
v 0.932449 0.771778 -1.710314
v 0.956445 1.043555 -1.710314
v 2.043555 1.043555 -1.710314
v 2.067551 0.771778 -1.710314
v 0.932449 0.228222 -1.710314
v 0.908452 0.500000 -1.710314
v 2.091548 0.500000 -1.710314
v 2.067551 0.228222 -1.710314
v 1.771778 1.047903 -1.710314
v 2.043555 -0.043555 -2.017111
v 2.043555 -0.043555 -1.710314
v 1.771778 -0.047903 -1.710314
v 0.956445 -0.043555 -1.710314
vt 0.500000 0.000000
vt 1.000000 0.000000
vt 1.000000 1.000000
vt 0.500000 1.000000
vt 0.500000 0.000000
vt 0.499979 0.999403
vt 0.999831 0.999469
vt 1.000000 0.000000
vt 0.000000 0.000000
vt 0.000000 1.000000
vt 0.499916 0.999735
vt 0.500000 0.000000
vt 0.000000 0.000000
vt 0.500000 0.000000
vt 0.499916 0.999735
vt 0.000000 1.000000
vt 0.000000 0.000000
vt 0.000126 0.999337
vt 0.499979 0.999403
vt 0.500000 0.000000
vt 0.000000 0.000000
vt 0.500000 0.000000
vt 0.499979 0.999403
vt 0.000126 0.999337
vt 0.500000 0.000000
vt 1.000000 0.000000
vt 1.000000 1.000000
vt 0.500000 1.000000
vt 0.500000 0.000000
vt 0.499979 0.999403
vt 0.999831 0.999469
vt 1.000000 0.000000
vt 1.000000 0.000000
vt 0.999832 0.999469
vt 0.999832 0.999469
vt 1.000000 0.000000
vt 1.000000 0.000000
vt 0.999832 0.999469
vt 0.999832 0.999469
vt 1.000000 0.000000
vt 0.000000 0.000000
vt 0.000127 0.999337
vt 0.000000 0.000000
vt 0.000000 1.000000
vt 0.000000 0.000000
vt 0.000127 0.999337
vt 0.000000 0.000000
vt 0.000000 1.000000
vn -0.015997 0.999872 0.000000
vn -0.015997 0.999872 0.000000
vn -0.015997 0.999872 0.000000
vn -0.015997 0.999872 0.000000
vn -0.015997 -0.999872 0.000000
vn -0.015997 -0.999872 0.000000
vn -0.015997 -0.999872 0.000000
vn -0.015997 -0.999872 0.000000
vn -0.996125 0.087952 0.000000
vn -0.996125 0.087952 0.000000
vn -0.996125 0.087952 0.000000
vn -0.996125 0.087952 0.000000
vn 0.996125 0.087952 0.000000
vn 0.996125 0.087952 0.000000
vn 0.996125 0.087952 0.000000
vn 0.996125 0.087952 0.000000
vn -0.996125 -0.087952 0.000000
vn -0.996125 -0.087952 0.000000
vn -0.996125 -0.087952 0.000000
vn -0.996125 -0.087952 0.000000
vn 0.996125 -0.087952 0.000000
vn 0.996125 -0.087952 0.000000
vn 0.996125 -0.087952 0.000000
vn 0.996125 -0.087952 0.000000
vn 0.015997 0.999872 0.000000
vn 0.015997 0.999872 0.000000
vn 0.015997 0.999872 0.000000
vn 0.015997 0.999872 0.000000
vn 0.015997 -0.999872 0.000000
vn 0.015997 -0.999872 0.000000
vn 0.015997 -0.999872 0.000000
vn 0.015997 -0.999872 0.000000
vn 0.996125 0.087952 0.000000
vn 0.996125 0.087952 0.000000
vn -0.996125 0.087952 0.000000
vn -0.996125 0.087952 0.000000
vn 0.996125 -0.087952 0.000000
vn 0.996125 -0.087952 0.000000
vn -0.996125 -0.087952 0.000000
vn -0.996125 -0.087952 0.000000
vn -0.015997 -0.999872 0.000000
vn -0.015997 -0.999872 0.000000
vn -0.015997 0.999872 0.000000
vn -0.015997 0.999872 0.000000
vn 0.015997 -0.999872 0.000000
vn 0.015997 -0.999872 0.000000
vn 0.015997 0.999872 0.000000
vn 0.015997 0.999872 0.000000
s 1
g polySurface1 pCube2 polySurface4
usemtl initialShadingGroup
f 128/132/153 129/133/154 114/134/155 125/135/156
s 2
f 131/136/157 124/137/158 115/138/159 130/139/160
s 3
f 134/140/161 132/141/162 121/142/163 133/143/164
s 4
f 135/144/165 136/145/166 120/146/167 119/147/168
s 5
f 138/148/169 117/149/170 123/150/171 137/151/172
s 6
f 139/152/173 140/153/174 122/154/175 118/155/176
s 7
f 141/156/177 135/157/178 119/158/179 127/159/180
s 8
f 144/160/181 126/161/182 142/162/183 143/163/184
s 4
f 120/146/167 136/145/166 139/164/185 118/165/186
s 3
f 133/143/164 121/142/163 117/166/187 138/167/188
s 6
f 122/154/175 140/153/174 143/168/189 142/169/190
s 5
f 137/151/172 123/150/171 116/170/191 145/171/192
s 2
f 145/172/193 116/173/194 124/137/158 131/136/157
s 1
f 134/174/195 128/132/153 125/135/156 132/175/196
s 8
f 130/176/197 115/177/198 126/161/182 144/160/181
s 7
f 129/178/199 141/156/177 127/159/180 114/179/200
g default
v 1.373212 0.244395 -0.480543
v 1.500000 0.242367 -0.465674
v 1.500000 0.293893 -0.355287
v 1.398569 0.295516 -0.374634
v 1.764771 0.373212 -0.480543
v 1.775966 0.500000 -0.465674
v 1.720773 0.500000 -0.355287
v 1.711817 0.398569 -0.374634
v 1.500000 0.757633 -0.465674
v 1.373212 0.755605 -0.480543
v 1.398569 0.704484 -0.374634
v 1.500000 0.706107 -0.355287
v 1.224034 0.500000 -0.465674
v 1.235229 0.373212 -0.480543
v 1.288183 0.398569 -0.374634
v 1.279227 0.500000 -0.355287
v 1.764771 0.626788 -0.480543
v 1.753577 0.753576 -0.495411
v 1.702861 0.702861 -0.393981
v 1.711817 0.601431 -0.374634
v 1.246423 0.753576 -0.495411
v 1.235229 0.626788 -0.480543
v 1.288183 0.601431 -0.374634
v 1.297139 0.702861 -0.393981
v 1.626788 0.244395 -0.480543
v 1.753577 0.246424 -0.495411
v 1.702861 0.297139 -0.393981
v 1.601431 0.295516 -0.374634
v 1.626788 0.755605 -0.480543
v 1.601431 0.704484 -0.374634
v 1.246423 0.246424 -0.495411
v 1.297139 0.297139 -0.393981
vt 0.437500 0.000000
vt 0.500000 0.000000
vt 0.500000 0.000000
vt 0.437500 0.000000
vt 0.625000 0.062500
vt 0.625000 0.125000
vt 0.625000 0.125000
vt 0.625000 0.062500
vt 0.500000 0.250000
vt 0.437500 0.250000
vt 0.437500 0.250000
vt 0.500000 0.250000
vt 0.375000 0.125000
vt 0.375000 0.062500
vt 0.375000 0.062500
vt 0.375000 0.125000
vt 0.625000 0.187500
vt 0.625000 0.187500
vt 0.625000 0.250000
vt 0.625000 0.250000
vt 0.375000 0.250000
vt 0.375000 0.187500
vt 0.375000 0.187500
vt 0.375000 0.250000
vt 0.562500 0.000000
vt 0.562500 0.000000
vt 0.625000 0.000000
vt 0.625000 0.000000
vt 0.562500 0.250000
vt 0.562500 0.250000
vt 0.375000 0.000000
vt 0.375000 0.000000
vn -0.081960 -0.888303 0.451885
vn 0.000000 -0.899770 0.436364
vn 0.000000 -0.899770 0.436364
vn -0.081071 -0.891550 0.445607
vn 0.868668 -0.147597 0.472896
vn 0.887405 -0.000000 0.460990
vn 0.887405 -0.000000 0.460990
vn 0.871839 -0.147023 0.467206
vn 0.000000 0.899770 0.436364
vn -0.081960 0.888303 0.451885
vn -0.081071 0.891550 0.445607
vn 0.000000 0.899770 0.436364
vn -0.887406 -0.000000 0.460990
vn -0.868668 -0.147597 0.472896
vn -0.871839 -0.147023 0.467206
vn -0.887405 -0.000000 0.460990
vn 0.871839 0.147023 0.467206
vn 0.868668 0.147597 0.472896
vn 0.861541 0.148840 0.485380
vn 0.861541 0.148840 0.485380
vn -0.861541 0.148840 0.485380
vn -0.868668 0.147597 0.472896
vn -0.871839 0.147023 0.467206
vn -0.861541 0.148840 0.485380
vn 0.081071 -0.891550 0.445607
vn 0.081960 -0.888303 0.451885
vn 0.083655 -0.881946 0.463868
vn 0.083655 -0.881946 0.463868
vn 0.083655 0.881946 0.463868
vn 0.081960 0.888303 0.451885
vn 0.081071 0.891550 0.445607
vn 0.083655 0.881946 0.463868
vn 0.861541 -0.148840 0.485380
vn 0.861541 -0.148840 0.485380
vn -0.861541 -0.148840 0.485380
vn -0.861541 -0.148840 0.485380
vn -0.083655 -0.881946 0.463868
vn -0.083655 -0.881946 0.463868
vn -0.083655 0.881946 0.463868
vn -0.083655 0.881946 0.463868
s 1
g polySurface12 polySurface10 polySurface8 polySurface6 polySurface3 polySurface1 pCube2 polySurface13
usemtl initialShadingGroup
f 146/180/201 147/181/202 148/182/203 149/183/204
s 2
f 150/184/205 151/185/206 152/186/207 153/187/208
s 3
f 154/188/209 155/189/210 156/190/211 157/191/212
s 4
f 158/192/213 159/193/214 160/194/215 161/195/216
s 2
f 165/196/217 162/197/218 163/198/219 164/199/220
s 4
f 166/200/221 167/201/222 168/202/223 169/203/224
s 1
f 173/204/225 170/205/226 171/206/227 172/207/228
s 3
f 163/198/229 174/208/230 175/209/231 164/199/232
s 2
f 152/186/207 151/185/206 162/197/218 165/196/217
s 4
f 168/202/223 167/201/222 158/192/213 161/195/216
s 2
f 171/206/233 150/184/205 153/187/208 172/207/234
s 4
f 160/194/215 159/193/214 176/210/235 177/211/236
s 1
f 176/210/237 146/180/201 149/183/204 177/211/238
s 3
f 156/190/211 155/189/210 166/200/239 169/203/240
s 1
f 148/182/203 147/181/202 170/205/226 173/204/225
s 3
f 175/209/231 174/208/230 154/188/209 157/191/212
g default
v 1.500000 0.982389 -1.384943
v 1.262603 0.978591 -1.380468
v 1.025207 0.974793 -1.375994
v 1.004246 0.737397 -1.380468
v 0.983285 0.500000 -1.384943
v 1.004246 0.262603 -1.380468
v 1.025207 0.025207 -1.375994
v 1.262603 0.021409 -1.380468
v 1.500000 0.017611 -1.384943
v 1.737397 0.021409 -1.380468
v 1.974793 0.025207 -1.375994
v 1.995754 0.262603 -1.380468
v 2.016715 0.500000 -1.384943
v 1.995754 0.737397 -1.380468
v 1.974793 0.974793 -1.375994
v 1.737397 0.978591 -1.380468
v 1.262603 0.978591 -1.043873
v 1.500000 0.982389 -1.052822
v 1.500000 0.017611 -1.052822
v 1.262603 0.021409 -1.043873
v 2.016715 0.500000 -1.052822
v 1.995754 0.262603 -1.043873
v 1.004246 0.262603 -1.043873
v 0.983285 0.500000 -1.052822
v 1.004246 0.737397 -1.043873
v 1.025207 0.974793 -1.034924
v 1.974793 0.974793 -1.034924
v 1.995754 0.737397 -1.043873
v 1.737397 0.978591 -1.043873
v 1.974793 0.025207 -1.034924
v 1.737397 0.021409 -1.043873
v 1.025207 0.025207 -1.034924
vt 0.437500 0.250000
vt 0.500000 0.250000
vt 0.500000 0.375000
vt 0.437500 0.375000
vt 0.437500 0.875000
vt 0.500000 0.875000
vt 0.500000 1.000000
vt 0.437500 1.000000
vt 0.625000 0.062500
vt 0.750000 0.062500
vt 0.750000 0.125000
vt 0.625000 0.125000
vt 0.250000 0.062500
vt 0.375000 0.062500
vt 0.375000 0.125000
vt 0.250000 0.125000
vt 0.250000 0.187500
vt 0.375000 0.187500
vt 0.375000 0.250000
vt 0.250000 0.250000
vt 0.625000 0.187500
vt 0.750000 0.187500
vt 0.750000 0.250000
vt 0.625000 0.250000
vt 0.562500 0.250000
vt 0.625000 0.375000
vt 0.562500 0.375000
vt 0.562500 1.000000
vt 0.562500 0.875000
vt 0.625000 0.875000
vt 0.625000 1.000000
vt 0.625000 0.000000
vt 0.750000 0.000000
vt 0.250000 0.000000
vt 0.375000 0.000000
vt 0.375000 0.875000
vt 0.375000 1.000000
vt 0.375000 0.375000
vn -0.015997 0.999872 0.000000
vn 0.000000 1.000000 0.000000
vn 0.000000 1.000000 0.000000
vn -0.015997 0.999872 0.000000
vn -0.015997 -0.999872 0.000000
vn 0.000000 -1.000000 0.000000
vn 0.000000 -1.000000 0.000000
vn -0.015997 -0.999872 0.000000
vn 0.996125 -0.087952 0.000000
vn 0.996125 -0.087952 0.000000
vn 1.000000 0.000000 0.000000
vn 1.000000 0.000000 0.000000
vn -0.996125 -0.087952 0.000000
vn -0.996125 -0.087952 0.000000
vn -1.000000 0.000000 0.000000
vn -1.000000 0.000000 0.000000
vn -0.996125 0.087952 0.000000
vn -0.996125 0.087952 0.000000
vn -0.996125 0.087952 0.000000
vn -0.996125 0.087952 0.000000
vn 0.996125 0.087952 0.000000
vn 0.996125 0.087952 0.000000
vn 0.996125 0.087952 0.000000
vn 0.996125 0.087952 0.000000
vn 0.015997 0.999872 0.000000
vn 0.015997 0.999872 0.000000
vn 0.015997 0.999872 0.000000
vn 0.015997 0.999872 0.000000
vn 0.015997 -0.999872 0.000000
vn 0.015997 -0.999872 0.000000
vn 0.015997 -0.999872 0.000000
vn 0.015997 -0.999872 0.000000
vn 0.996125 -0.087952 0.000000
vn 0.996125 -0.087952 0.000000
vn -0.996125 -0.087952 0.000000
vn -0.996125 -0.087952 0.000000
vn -0.015997 -0.999872 0.000000
vn -0.015997 -0.999872 0.000000
vn -0.015997 0.999872 0.000000
vn -0.015997 0.999872 0.000000
s 1
g polySurface6 polySurface3 polySurface1 pCube2 polySurface7
usemtl initialShadingGroup
f 194/212/241 195/213/242 178/214/243 179/215/244
s 2
f 185/216/245 186/217/246 196/218/247 197/219/248
s 3
f 199/220/249 189/221/250 190/222/251 198/223/252
s 4
f 183/224/253 200/225/254 201/226/255 182/227/256
f 181/228/257 202/229/258 203/230/259 180/231/260
s 3
f 205/232/261 191/233/262 192/234/263 204/235/264
s 1
f 206/236/265 204/235/266 192/237/267 193/238/268
s 2
f 208/239/269 187/240/270 188/241/271 207/242/272
s 3
f 198/223/252 190/222/251 191/233/262 205/232/261
s 4
f 182/227/256 201/226/255 202/229/258 181/228/257
s 3
f 207/243/273 188/244/274 189/221/250 199/220/249
s 4
f 184/245/275 209/246/276 200/225/254 183/224/253
s 2
f 184/247/277 185/216/245 197/219/248 209/248/278
s 1
f 203/230/279 194/212/241 179/215/244 180/249/280
s 2
f 196/218/247 186/217/246 187/240/270 208/239/269
s 1
f 195/213/242 206/236/265 193/238/268 178/214/243
g default
v 1.262603 0.978591 -1.380468
v 1.500000 0.982389 -1.384943
v 1.500000 0.982389 -1.717064
v 1.262603 0.978591 -1.717064
v 1.025207 0.974793 -1.375994
v 1.025207 0.974793 -1.717064
v 1.004246 0.737397 -1.380468
v 1.004246 0.737397 -1.717064
v 0.983285 0.500000 -1.384943
v 0.983285 0.500000 -1.717064
v 1.004246 0.262603 -1.380468
v 1.004246 0.262603 -1.717064
v 1.025207 0.025207 -1.375994
v 1.025207 0.025207 -1.717064
v 1.262603 0.021409 -1.717064
v 1.262603 0.021409 -1.380468
v 1.500000 0.017611 -1.717064
v 1.500000 0.017611 -1.384943
v 1.737397 0.021409 -1.380468
v 1.737397 0.021409 -1.717064
v 1.974793 0.025207 -1.375994
v 1.974793 0.025207 -1.717064
v 1.995754 0.262603 -1.380468
v 1.995754 0.262603 -1.717064
v 2.016715 0.500000 -1.384943
v 2.016715 0.500000 -1.717064
v 1.995754 0.737397 -1.380468
v 1.995754 0.737397 -1.717064
v 1.974793 0.974793 -1.375994
v 1.974793 0.974793 -1.717064
v 1.737397 0.978591 -1.380468
v 1.737397 0.978591 -1.717064
vt 0.437500 0.375000
vt 0.500000 0.375000
vt 0.500000 0.500000
vt 0.437500 0.500000
vt 0.375000 0.375000
vt 0.375000 0.500000
vt 0.125000 0.187500
vt 0.250000 0.187500
vt 0.250000 0.250000
vt 0.125000 0.250000
vt 0.125000 0.125000
vt 0.250000 0.125000
vt 0.125000 0.062500
vt 0.250000 0.062500
vt 0.125000 0.000000
vt 0.250000 0.000000
vt 0.375000 0.750000
vt 0.437500 0.750000
vt 0.437500 0.875000
vt 0.375000 0.875000
vt 0.500000 0.750000
vt 0.500000 0.875000
vt 0.562500 0.875000
vt 0.562500 0.750000
vt 0.625000 0.875000
vt 0.625000 0.750000
vt 0.750000 0.062500
vt 0.750000 0.000000
vt 0.875000 0.000000
vt 0.875000 0.062500
vt 0.750000 0.125000
vt 0.875000 0.125000
vt 0.750000 0.187500
vt 0.875000 0.187500
vt 0.750000 0.250000
vt 0.875000 0.250000
vt 0.562500 0.375000
vt 0.625000 0.375000
vt 0.625000 0.500000
vt 0.562500 0.500000
vn -0.015997 0.999872 0.000000
vn 0.000000 1.000000 0.000000
vn 0.000000 1.000000 0.000000
vn -0.015997 0.999872 0.000000
vn -0.015997 0.999872 0.000000
vn -0.015997 0.999872 0.000000
vn -0.996125 0.087952 0.000000
vn -0.996125 0.087952 0.000000
vn -0.996125 0.087952 0.000000
vn -0.996125 0.087952 0.000000
vn -1.000000 0.000000 0.000000
vn -1.000000 0.000000 0.000000
vn -0.996125 -0.087952 0.000000
vn -0.996125 -0.087952 0.000000
vn -0.996125 -0.087952 0.000000
vn -0.996125 -0.087952 0.000000
vn -0.015997 -0.999872 0.000000
vn -0.015997 -0.999872 0.000000
vn -0.015997 -0.999872 0.000000
vn -0.015997 -0.999872 0.000000
vn 0.000000 -1.000000 0.000000
vn 0.000000 -1.000000 0.000000
vn 0.015997 -0.999872 0.000000
vn 0.015997 -0.999872 0.000000
vn 0.015997 -0.999872 0.000000
vn 0.015997 -0.999872 0.000000
vn 0.996125 -0.087952 0.000000
vn 0.996125 -0.087952 0.000000
vn 0.996125 -0.087952 0.000000
vn 0.996125 -0.087952 0.000000
vn 1.000000 0.000000 0.000000
vn 1.000000 0.000000 0.000000
vn 0.996125 0.087952 0.000000
vn 0.996125 0.087952 0.000000
vn 0.996125 0.087952 0.000000
vn 0.996125 0.087952 0.000000
vn 0.015997 0.999872 0.000000
vn 0.015997 0.999872 0.000000
vn 0.015997 0.999872 0.000000
vn 0.015997 0.999872 0.000000
s 1
g polySurface3 polySurface1 pCube2 polySurface5
usemtl initialShadingGroup
f 210/250/281 211/251/282 212/252/283 213/253/284
f 214/254/285 210/250/281 213/253/284 215/255/286
s 2
f 217/256/287 216/257/288 214/258/289 215/259/290
f 219/260/291 218/261/292 216/257/288 217/256/287
f 221/262/293 220/263/294 218/261/292 219/260/291
f 223/264/295 222/265/296 220/263/294 221/262/293
s 3
f 223/266/297 224/267/298 225/268/299 222/269/300
f 224/267/298 226/270/301 227/271/302 225/268/299
f 228/272/303 227/271/302 226/270/301 229/273/304
f 230/274/305 228/272/303 229/273/304 231/275/306
s 4
f 232/276/307 230/277/308 231/278/309 233/279/310
f 234/280/311 232/276/307 233/279/310 235/281/312
f 236/282/313 234/280/311 235/281/312 237/283/314
f 238/284/315 236/282/313 237/283/314 239/285/316
s 1
f 240/286/317 238/287/318 239/288/319 241/289/320
f 211/251/282 240/286/317 241/289/320 212/252/283
g default
v 1.500000 0.493271 -2.253354
v 1.500000 0.772761 -2.135233
v 1.500000 0.220510 -2.135233
v 1.216224 0.224366 -2.076172
v 1.204226 0.496636 -2.135233
v 1.216224 0.772269 -2.076172
v 1.783776 0.224366 -2.076172
v 1.795774 0.496636 -2.135233
v 1.783776 0.772269 -2.076172
v 2.067551 0.771778 -2.188852
v 1.783776 0.772269 -2.247913
v 2.091548 0.500000 -2.188852
v 1.795774 0.496636 -2.306973
v 1.500000 1.052251 -2.100347
v 1.771778 1.047903 -2.100347
v 1.783776 0.772269 -2.159408
v 1.500000 0.772761 -2.218469
v 1.771778 1.047903 -2.270559
v 2.043555 1.043555 -2.270559
v 2.067551 0.771778 -2.270559
v 1.783776 0.772269 -2.329619
v 1.783776 0.772269 -2.399956
v 1.500000 0.772761 -2.459017
v 1.795774 0.496636 -2.459017
v 1.500000 0.493271 -2.577138
v 1.500000 0.493271 -2.464208
v 1.795774 0.496636 -2.346086
v 1.783776 0.224366 -2.287025
v 1.500000 0.220510 -2.346086
v 1.500000 0.772761 -2.363835
v 1.216224 0.772269 -2.304774
v 1.500000 0.493271 -2.481956
v 1.204226 0.496636 -2.363835
v 1.228222 1.047903 -2.412907
v 1.500000 1.052251 -2.412907
v 1.500000 0.772761 -2.531029
v 1.216224 0.772269 -2.471968
v 1.795774 0.496636 -2.205709
v 2.091548 0.500000 -2.087587
v 2.067551 0.228222 -2.087587
v 1.783776 0.224366 -2.146648
v 2.067551 0.228222 -2.311902
v 1.783776 0.224366 -2.370963
v 2.043555 -0.043555 -2.311902
v 1.771778 -0.047903 -2.311902
v 1.783776 0.224366 -2.153677
v 1.500000 0.220510 -2.212738
v 1.771778 -0.047903 -2.094616
v 1.500000 -0.052251 -2.094616
v 1.204226 0.496636 -2.223229
v 1.500000 0.493271 -2.341350
v 1.500000 0.220510 -2.223229
v 1.216224 0.224366 -2.164168
v 1.500000 0.220510 -2.377237
v 1.216224 0.224366 -2.318177
v 1.500000 -0.052251 -2.259116
v 1.228222 -0.047903 -2.259116
v 0.908452 0.500000 -2.163989
v 1.204226 0.496636 -2.282110
v 1.216224 0.224366 -2.223049
v 0.932449 0.228222 -2.163989
v 1.216224 0.772269 -2.183215
v 0.932449 0.771778 -2.124154
v 1.204226 0.496636 -2.242275
v 0.908452 0.500000 -2.124154
v 0.956445 1.043555 -2.219256
v 1.228222 1.047903 -2.219256
v 1.216224 0.772269 -2.278317
v 0.932449 0.771778 -2.219256
v 1.216224 0.224366 -2.433055
v 0.932449 0.228222 -2.373994
v 1.228222 -0.047903 -2.373994
v 0.956445 -0.043555 -2.373994
v 2.067551 0.771778 -2.017111
v 2.091548 0.500000 -2.017111
v 1.500000 1.052251 -2.017111
v 1.771778 1.047903 -2.017111
v 2.043555 1.043555 -2.017111
v 1.228222 1.047903 -2.017111
v 2.067551 0.228222 -2.017111
v 2.043555 -0.043555 -2.017111
v 1.771778 -0.047903 -2.017111
v 1.500000 -0.052251 -2.017111
v 1.228222 -0.047903 -2.017111
v 0.932449 0.228222 -2.017111
v 0.908452 0.500000 -2.017111
v 0.932449 0.771778 -2.017111
v 0.956445 1.043555 -2.017111
v 0.956445 -0.043555 -2.017111
vt 0.500000 0.000000
vt 1.000000 0.000000
vt 1.000000 0.500000
vt 0.477976 0.492721
vt 0.500000 0.000000
vt 1.000000 0.000000
vt 1.044049 0.485442
vt 0.522024 0.492721
vt 0.455997 -0.014872
vt 1.000000 0.000000
vt 0.999914 0.503929
vt 0.477987 0.488453
vt 0.544004 -0.014859
vt 1.088008 -0.029718
vt 1.043921 0.473009
vt 0.521992 0.488458
vt 0.522024 0.492721
vt 1.044049 0.485442
vt 1.088098 0.970884
vt 0.544049 0.985442
vt 0.477976 0.492721
vt 1.000000 0.500000
vt 1.000000 1.000000
vt 0.455951 0.985442
vt 0.521992 0.488458
vt 1.043921 0.473009
vt 0.999833 0.975736
vt 0.499980 0.991775
vt 0.477987 0.488453
vt 0.999914 0.503929
vt 0.999828 1.007859
vt 0.499977 0.991777
vt -0.043940 0.472976
vt 0.477987 0.488453
vt 0.499977 0.991777
vt 0.000126 0.975695
vt -0.088005 -0.029743
vt 0.455997 -0.014872
vt 0.477987 0.488453
vt -0.043940 0.472976
vt -0.044049 0.485442
vt 0.477976 0.492721
vt 0.455951 0.985442
vt -0.088097 0.970884
vt 0.000000 0.000000
vt 0.500000 0.000000
vt 0.477976 0.492721
vt -0.044049 0.485442
vt 0.000064 0.503907
vt 0.521992 0.488458
vt 0.499980 0.991775
vt 0.000128 1.007814
vt 0.000000 0.000000
vt 0.544004 -0.014859
vt 0.521992 0.488458
vt 0.000064 0.503907
vt 0.000000 0.500000
vt 0.522024 0.492721
vt 0.544049 0.985442
vt 0.000000 1.000000
vt 0.000000 0.000000
vt 0.500000 0.000000
vt 0.522024 0.492721
vt 0.000000 0.500000
vt 0.522024 0.492721
vt 1.044049 0.485442
vt 1.088098 0.970884
vt 0.544049 0.985442
vt 0.000000 0.000000
vt 0.500000 0.000000
vt 0.000000 0.500000
vt 1.000000 0.000000
vt 0.000000 1.000000
vt 0.000000 0.000000
vt 0.544004 -0.014859
vt 0.521992 0.488458
vt 0.000064 0.503907
vt 0.477976 0.492721
vt 1.000000 0.500000
vt 1.000000 1.000000
vt 0.455951 0.985442
vt 0.500000 0.000000
vt 1.000000 0.000000
vt 1.088008 -0.029718
vt 1.043921 0.473009
vt 0.999833 0.975736
vt 0.499980 0.991775
vt 0.000128 1.007814
vt 0.455997 -0.014872
vt 1.000000 0.000000
vt 0.999914 0.503929
vt 0.477987 0.488453
vt 0.999828 1.007859
vt 0.499977 0.991777
vt -0.088005 -0.029743
vt -0.043940 0.472976
vt -0.044049 0.485442
vt -0.088097 0.970884
vt 0.000000 0.000000
vt 0.000126 0.975695
vn -0.103318 0.304463 -0.946904
vn -0.103318 0.304463 -0.946905
vn -0.103318 0.304463 -0.946904
vn -0.103318 0.304463 -0.946905
vn 0.106009 0.113552 -0.987860
vn 0.106009 0.113552 -0.987860
vn 0.106009 0.113552 -0.987860
vn 0.106009 0.113552 -0.987860
vn -0.282137 -0.302212 -0.910531
vn -0.282137 -0.302212 -0.910531
vn -0.282137 -0.302212 -0.910531
vn -0.282137 -0.302212 -0.910531
vn 0.291566 -0.122279 -0.948703
vn 0.291565 -0.122279 -0.948703
vn 0.291565 -0.122279 -0.948703
vn 0.291566 -0.122279 -0.948703
vn 0.289651 0.121477 -0.949392
vn 0.289651 0.121477 -0.949392
vn 0.289651 0.121477 -0.949392
vn 0.289651 0.121477 -0.949392
vn -0.277775 0.297541 -0.913406
vn -0.277775 0.297541 -0.913406
vn -0.277775 0.297541 -0.913406
vn -0.277775 0.297541 -0.913406
vn 0.106690 -0.114282 -0.987703
vn 0.106690 -0.114282 -0.987703
vn 0.106690 -0.114282 -0.987703
vn 0.106690 -0.114282 -0.987703
vn -0.105041 -0.309541 -0.945066
vn -0.105041 -0.309541 -0.945066
vn -0.105041 -0.309541 -0.945067
vn -0.105041 -0.309541 -0.945067
vn -0.106690 -0.114282 -0.987703
vn -0.106690 -0.114282 -0.987703
vn -0.106690 -0.114282 -0.987703
vn -0.106690 -0.114282 -0.987703
vn -0.291565 -0.122280 -0.948703
vn -0.291565 -0.122280 -0.948703
vn -0.291565 -0.122280 -0.948703
vn -0.291565 -0.122280 -0.948703
vn -0.289651 0.121477 -0.949392
vn -0.289651 0.121477 -0.949392
vn -0.289651 0.121477 -0.949392
vn -0.289651 0.121477 -0.949392
vn -0.106009 0.113552 -0.987860
vn -0.106009 0.113552 -0.987860
vn -0.106009 0.113552 -0.987860
vn -0.106009 0.113552 -0.987860
vn 0.105041 -0.309541 -0.945066
vn 0.105041 -0.309541 -0.945066
vn 0.105041 -0.309541 -0.945067
vn 0.105041 -0.309541 -0.945067
vn 0.282136 -0.302212 -0.910531
vn 0.282136 -0.302212 -0.910531
vn 0.282136 -0.302212 -0.910531
vn 0.282136 -0.302212 -0.910531
vn 0.277775 0.297541 -0.913406
vn 0.277775 0.297541 -0.913406
vn 0.277775 0.297541 -0.913406
vn 0.277775 0.297541 -0.913406
vn 0.103318 0.304463 -0.946904
vn 0.103318 0.304463 -0.946904
vn 0.103318 0.304463 -0.946904
vn 0.103318 0.304463 -0.946904
vn 0.001733 0.999999 0.000000
vn 0.001733 0.999999 0.000000
vn 0.001733 0.999999 0.000000
vn 0.001733 0.999999 0.000000
vn 0.996125 0.087952 0.000000
vn 0.996125 0.087952 0.000000
vn 0.996125 0.087952 0.000000
vn 0.996125 0.087952 0.000000
vn 0.011374 -0.999935 0.000000
vn 0.011374 -0.999935 0.000000
vn 0.011374 -0.999935 0.000000
vn 0.011374 -0.999935 0.000000
vn -0.999054 -0.043488 0.000000
vn -0.999054 -0.043488 0.000000
vn -0.999054 -0.043488 0.000000
vn -0.999054 -0.043488 0.000000
vn 0.015997 0.999872 0.000000
vn 0.015997 0.999872 0.000000
vn 0.015997 0.999872 0.000000
vn 0.015997 0.999872 0.000000
vn 0.999054 0.043488 0.000000
vn 0.999054 0.043488 0.000000
vn 0.999054 0.043488 0.000000
vn 0.999054 0.043488 0.000000
vn -0.001733 -0.999999 0.000000
vn -0.001733 -0.999999 0.000000
vn -0.001733 -0.999999 0.000000
vn -0.001733 -0.999999 0.000000
vn -1.000000 0.000000 0.000000
vn -1.000000 0.000000 0.000000
vn -1.000000 0.000000 0.000000
vn -1.000000 0.000000 0.000000
vn 0.015997 0.999872 0.000000
vn 0.015997 0.999872 0.000000
vn 0.015997 0.999872 0.000000
vn 0.015997 0.999872 0.000000
vn 0.996125 0.087952 0.000000
vn 0.996125 0.087952 0.000000
vn 0.996125 0.087952 0.000000
vn 0.996125 0.087952 0.000000
vn -0.001733 -0.999999 0.000000
vn -0.001733 -0.999999 0.000000
vn -0.001733 -0.999999 0.000000
vn -0.001733 -0.999999 0.000000
vn -0.999054 -0.043488 0.000000
vn -0.999054 -0.043488 0.000000
vn -0.999054 -0.043488 0.000000
vn -0.999054 -0.043488 0.000000
vn 0.001733 0.999999 0.000000
vn 0.001733 0.999999 0.000000
vn 0.001733 0.999999 0.000000
vn 0.001733 0.999999 0.000000
vn 0.999054 0.043488 0.000000
vn 0.999054 0.043488 0.000000
vn 0.999054 0.043488 0.000000
vn 0.999054 0.043488 0.000000
vn 0.011374 -0.999935 0.000000
vn 0.011374 -0.999935 0.000000
vn 0.011374 -0.999935 0.000000
vn 0.011374 -0.999935 0.000000
vn -1.000000 0.000000 0.000000
vn -1.000000 0.000000 0.000000
vn -1.000000 0.000000 0.000000
vn -1.000000 0.000000 0.000000
vn -0.011374 0.999935 0.000000
vn -0.011374 0.999935 0.000000
vn -0.011374 0.999935 0.000000
vn -0.011374 0.999935 0.000000
vn 0.999031 -0.044025 0.000000
vn 0.999030 -0.044025 0.000000
vn 0.999031 -0.044025 0.000000
vn 0.999030 -0.044025 0.000000
vn 0.013588 -0.999908 0.000000
vn 0.013588 -0.999908 0.000000
vn 0.013588 -0.999908 0.000000
vn 0.013588 -0.999908 0.000000
vn -1.000000 0.000000 0.000000
vn -1.000000 0.000000 0.000000
vn -1.000000 0.000000 0.000000
vn -1.000000 0.000000 0.000000
vn -0.001733 0.999999 0.000000
vn -0.001733 0.999999 0.000000
vn -0.001733 0.999999 0.000000
vn -0.001733 0.999999 0.000000
vn 1.000000 0.000000 0.000000
vn 1.000000 0.000000 0.000000
vn 1.000000 0.000000 0.000000
vn 1.000000 0.000000 0.000000
vn -0.011374 -0.999935 0.000000
vn -0.011374 -0.999935 0.000000
vn -0.011374 -0.999935 0.000000
vn -0.011374 -0.999935 0.000000
vn -0.999054 0.043488 0.000000
vn -0.999054 0.043488 0.000000
vn -0.999054 0.043488 0.000000
vn -0.999054 0.043488 0.000000
vn -0.015997 0.999872 0.000000
vn -0.015997 0.999872 0.000000
vn -0.015997 0.999872 0.000000
vn -0.015997 0.999872 0.000000
vn 1.000000 0.000000 0.000000
vn 1.000000 0.000000 0.000000
vn 1.000000 0.000000 0.000000
vn 1.000000 0.000000 0.000000
vn 0.001733 -0.999999 0.000000
vn 0.001733 -0.999999 0.000000
vn 0.001733 -0.999999 0.000000
vn 0.001733 -0.999999 0.000000
vn -0.999054 0.043488 0.000000
vn -0.999054 0.043488 0.000000
vn -0.999054 0.043488 0.000000
vn -0.999054 0.043488 0.000000
vn -0.011374 0.999935 0.000000
vn -0.011374 0.999935 0.000000
vn -0.011374 0.999935 0.000000
vn -0.011374 0.999935 0.000000
vn 0.996125 -0.087952 0.000000
vn 0.996125 -0.087952 0.000000
vn 0.996125 -0.087952 0.000000
vn 0.996125 -0.087952 0.000000
vn 0.013588 -0.999908 0.000000
vn 0.013588 -0.999908 0.000000
vn 0.013588 -0.999908 0.000000
vn 0.013588 -0.999908 0.000000
vn -0.999030 0.044024 0.000000
vn -0.999031 0.044024 0.000000
vn -0.999030 0.044024 0.000000
vn -0.999030 0.044024 0.000000
vn -0.013588 0.999908 0.000000
vn -0.013588 0.999908 0.000000
vn -0.013588 0.999908 0.000000
vn -0.013588 0.999908 0.000000
vn 0.996125 -0.087952 0.000000
vn 0.996125 -0.087952 0.000000
vn 0.996125 -0.087952 0.000000
vn 0.996125 -0.087952 0.000000
vn 0.015997 -0.999872 0.000000
vn 0.015997 -0.999872 0.000000
vn 0.015997 -0.999872 0.000000
vn 0.015997 -0.999872 0.000000
vn -0.999030 0.044025 0.000000
vn -0.999031 0.044025 0.000000
vn -0.999030 0.044025 0.000000
vn -0.999031 0.044025 0.000000
vn -0.013588 0.999908 0.000000
vn -0.013588 0.999908 0.000000
vn -0.013588 0.999908 0.000000
vn -0.013588 0.999908 0.000000
vn 0.999031 -0.044025 0.000000
vn 0.999031 -0.044025 0.000000
vn 0.999031 -0.044025 0.000000
vn 0.999031 -0.044025 0.000000
vn 0.015997 -0.999872 0.000000
vn 0.015997 -0.999872 0.000000
vn 0.015997 -0.999872 0.000000
vn 0.015997 -0.999872 0.000000
vn -1.000000 0.000000 0.000000
vn -1.000000 0.000000 0.000000
vn -1.000000 0.000000 0.000000
vn -1.000000 0.000000 0.000000
vn 0.011374 0.999935 0.000000
vn 0.011374 0.999935 0.000000
vn 0.011374 0.999935 0.000000
vn 0.011374 0.999935 0.000000
vn 1.000000 0.000000 0.000000
vn 1.000000 0.000000 0.000000
vn 1.000000 0.000000 0.000000
vn 1.000000 0.000000 0.000000
vn -0.013588 -0.999908 0.000000
vn -0.013588 -0.999908 0.000000
vn -0.013588 -0.999908 0.000000
vn -0.013588 -0.999908 0.000000
vn -0.999030 -0.044025 0.000000
vn -0.999030 -0.044025 0.000000
vn -0.999030 -0.044025 0.000000
vn -0.999030 -0.044025 0.000000
vn 0.013588 0.999908 0.000000
vn 0.013588 0.999908 0.000000
vn 0.013588 0.999908 0.000000
vn 0.013588 0.999908 0.000000
vn 1.000000 0.000000 0.000000
vn 1.000000 0.000000 0.000000
vn 1.000000 0.000000 0.000000
vn 1.000000 0.000000 0.000000
vn -0.015997 -0.999872 0.000000
vn -0.015997 -0.999872 0.000000
vn -0.015997 -0.999872 0.000000
vn -0.015997 -0.999872 0.000000
vn -0.999031 -0.044025 0.000000
vn -0.999030 -0.044025 0.000000
vn -0.999031 -0.044025 0.000000
vn -0.999030 -0.044025 0.000000
vn 0.011374 0.999935 0.000000
vn 0.011374 0.999935 0.000000
vn 0.011374 0.999935 0.000000
vn 0.011374 0.999935 0.000000
vn 0.999031 0.044025 0.000000
vn 0.999031 0.044025 0.000000
vn 0.999031 0.044025 0.000000
vn 0.999031 0.044025 0.000000
vn -0.013588 -0.999908 0.000000
vn -0.013588 -0.999908 0.000000
vn -0.013588 -0.999908 0.000000
vn -0.013588 -0.999908 0.000000
vn -0.996125 -0.087952 0.000000
vn -0.996125 -0.087952 0.000000
vn -0.996125 -0.087952 0.000000
vn -0.996125 -0.087952 0.000000
vn -0.001733 0.999999 0.000000
vn -0.001733 0.999999 0.000000
vn -0.001733 0.999999 0.000000
vn -0.001733 0.999999 0.000000
vn 0.999054 -0.043488 0.000000
vn 0.999054 -0.043488 0.000000
vn 0.999054 -0.043488 0.000000
vn 0.999054 -0.043488 0.000000
vn -0.011374 -0.999935 0.000000
vn -0.011374 -0.999935 0.000000
vn -0.011374 -0.999935 0.000000
vn -0.011374 -0.999935 0.000000
vn -0.996125 0.087952 0.000000
vn -0.996125 0.087952 0.000000
vn -0.996125 0.087952 0.000000
vn -0.996125 0.087952 0.000000
vn -0.015997 0.999872 0.000000
vn -0.015997 0.999872 0.000000
vn -0.015997 0.999872 0.000000
vn -0.015997 0.999872 0.000000
vn 0.999054 -0.043488 0.000000
vn 0.999054 -0.043488 0.000000
vn 0.999054 -0.043488 0.000000
vn 0.999054 -0.043488 0.000000
vn 0.001733 -0.999999 0.000000
vn 0.001733 -0.999999 0.000000
vn 0.001733 -0.999999 0.000000
vn 0.001733 -0.999999 0.000000
vn -0.996125 0.087952 0.000000
vn -0.996125 0.087952 0.000000
vn -0.996125 0.087952 0.000000
vn -0.996125 0.087952 0.000000
vn 0.013588 0.999908 0.000000
vn 0.013588 0.999908 0.000000
vn 0.013588 0.999908 0.000000
vn 0.013588 0.999908 0.000000
vn 0.999030 0.044025 0.000000
vn 0.999030 0.044025 0.000000
vn 0.999030 0.044025 0.000000
vn 0.999030 0.044025 0.000000
vn -0.015997 -0.999872 0.000000
vn -0.015997 -0.999872 0.000000
vn -0.015997 -0.999872 0.000000
vn -0.015997 -0.999872 0.000000
vn -0.996125 -0.087952 0.000000
vn -0.996125 -0.087952 0.000000
vn -0.996125 -0.087952 0.000000
vn -0.996125 -0.087952 0.000000
s off
g pCube2 polySurface2
usemtl initialShadingGroup
f 275/290/321 276/291/322 277/292/323 278/293/324
f 259/294/325 260/295/326 261/296/327 262/297/328
f 291/298/329 292/299/330 293/300/331 294/301/332
f 279/302/333 280/303/334 281/304/335 282/305/336
f 252/306/337 251/307/338 253/308/339 254/309/340
f 272/310/341 271/311/342 273/312/343 274/313/344
f 284/314/345 283/315/346 285/316/347 286/317/348
f 296/318/349 295/319/350 297/320/351 298/321/352
f 312/322/353 311/323/354 313/324/355 314/325/356
f 299/326/357 300/327/358 301/328/359 302/329/360
f 304/330/361 303/331/362 305/332/363 306/333/364
f 307/334/365 308/335/366 309/336/367 310/337/368
f 288/338/369 287/339/370 289/340/371 290/341/372
f 267/342/373 268/343/374 269/344/375 270/345/376
f 264/346/377 263/347/378 265/348/379 266/349/380
f 255/350/381 256/351/382 257/352/383 258/353/384
f 250/354/385 315/355/386 251/307/387 252/306/388
f 315/355/389 316/356/390 253/308/391 251/307/392
f 316/356/393 249/357/394 254/309/395 253/308/396
f 249/357/397 250/354/398 252/306/399 254/309/400
f 317/358/401 318/359/402 256/351/403 255/350/404
f 318/359/405 250/354/406 257/352/407 256/351/408
f 250/354/409 243/360/410 258/353/411 257/352/412
f 243/360/413 317/358/414 255/350/415 258/353/416
f 318/359/417 319/361/418 260/295/419 259/294/420
f 319/361/421 315/355/422 261/296/423 260/295/424
f 315/355/425 250/354/426 262/297/427 261/296/428
f 250/354/429 318/359/430 259/294/431 262/297/432
f 243/360/433 250/354/434 263/347/435 264/346/436
f 250/354/437 249/357/438 265/348/439 263/347/440
f 249/357/441 242/362/442 266/349/443 265/348/444
f 242/362/445 243/360/446 264/346/447 266/349/448
f 242/363/449 249/364/450 268/343/451 267/342/452
f 249/364/453 248/365/454 269/344/455 268/343/456
f 248/365/457 244/366/458 270/345/459 269/344/460
f 244/366/461 242/363/462 267/342/463 270/345/464
f 247/367/465 243/368/466 271/311/467 272/310/468
f 243/368/469 242/369/470 273/312/471 271/311/472
f 242/369/473 246/370/474 274/313/475 273/312/476
f 246/370/477 247/367/478 272/310/479 274/313/480
f 320/371/481 317/372/482 276/291/483 275/290/484
f 317/372/485 243/368/486 277/292/487 276/291/488
f 243/368/489 247/367/490 278/293/491 277/292/492
f 247/367/493 320/371/494 275/290/495 278/293/496
f 249/364/497 316/373/498 280/303/499 279/302/500
f 316/373/501 321/374/502 281/304/503 280/303/504
f 321/374/505 248/365/506 282/305/507 281/304/508
f 248/365/509 249/364/510 279/302/511 282/305/512
f 248/365/513 321/374/514 283/315/515 284/314/516
f 321/374/517 322/375/518 285/316/519 283/315/520
f 322/375/521 323/376/522 286/317/523 285/316/524
f 323/376/525 248/365/526 284/314/527 286/317/528
f 244/366/529 248/365/530 287/339/531 288/338/532
f 248/365/533 323/376/534 289/340/535 287/339/536
f 323/376/537 324/377/538 290/341/539 289/340/540
f 324/377/541 244/366/542 288/338/543 290/341/544
f 246/378/545 242/379/546 292/299/547 291/298/548
f 242/379/549 244/380/550 293/300/551 292/299/552
f 244/380/553 245/381/554 294/301/555 293/300/556
f 245/381/557 246/378/558 291/298/559 294/301/560
f 245/381/561 244/380/562 295/319/563 296/318/564
f 244/380/565 324/382/566 297/320/567 295/319/568
f 324/382/569 325/383/570 298/321/571 297/320/572
f 325/383/573 245/381/574 296/318/575 298/321/576
f 327/384/577 246/378/578 300/327/579 299/326/580
f 246/378/581 245/381/582 301/328/583 300/327/584
f 245/381/585 326/385/586 302/329/587 301/328/588
f 326/385/589 327/384/590 299/326/591 302/329/592
f 328/386/593 247/367/594 303/331/595 304/330/596
f 247/367/597 246/370/598 305/332/599 303/331/600
f 246/370/601 327/387/602 306/333/603 305/332/604
f 327/387/605 328/386/606 304/330/607 306/333/608
f 329/388/609 320/371/610 308/335/611 307/334/612
f 320/371/613 247/367/614 309/336/615 308/335/616
f 247/367/617 328/386/618 310/337/619 309/336/620
f 328/386/621 329/388/622 307/334/623 310/337/624
f 326/385/625 245/381/626 311/323/627 312/322/628
f 245/381/629 325/383/630 313/324/631 311/323/632
f 325/383/633 330/389/634 314/325/635 313/324/636
f 330/389/637 326/385/638 312/322/639 314/325/640
g default
v 1.322496 0.142153 -0.692359
v 1.500000 0.139313 -0.686446
v 1.500000 0.190840 -0.576060
v 1.347854 0.193274 -0.586451
v 1.870680 0.322496 -0.692359
v 1.886352 0.500000 -0.686446
v 1.831159 0.500000 -0.576060
v 1.817726 0.347854 -0.586451
v 1.500000 0.860687 -0.686446
v 1.322496 0.857847 -0.692359
v 1.347854 0.806726 -0.586451
v 1.500000 0.809160 -0.576060
v 1.113648 0.500000 -0.686446
v 1.129320 0.322496 -0.692359
v 1.182274 0.347854 -0.586451
v 1.168841 0.500000 -0.576060
v 1.870680 0.677504 -0.692359
v 1.855007 0.855007 -0.698273
v 1.804292 0.804292 -0.596842
v 1.817726 0.652146 -0.586451
v 1.144993 0.855007 -0.698273
v 1.129320 0.677504 -0.692359
v 1.182274 0.652146 -0.586451
v 1.195708 0.804292 -0.596842
v 1.677504 0.142153 -0.692359
v 1.855007 0.144993 -0.698273
v 1.804292 0.195708 -0.596842
v 1.652146 0.193274 -0.586451
v 1.677504 0.857847 -0.692359
v 1.652146 0.806726 -0.586451
v 1.144993 0.144993 -0.698273
v 1.195708 0.195708 -0.596842
vt 0.437500 0.000000
vt 0.500000 0.000000
vt 0.500000 0.000000
vt 0.437500 0.000000
vt 0.625000 0.062500
vt 0.625000 0.125000
vt 0.625000 0.125000
vt 0.625000 0.062500
vt 0.500000 0.250000
vt 0.437500 0.250000
vt 0.437500 0.250000
vt 0.500000 0.250000
vt 0.375000 0.125000
vt 0.375000 0.062500
vt 0.375000 0.062500
vt 0.375000 0.125000
vt 0.625000 0.187500
vt 0.625000 0.187500
vt 0.625000 0.250000
vt 0.625000 0.250000
vt 0.375000 0.250000
vt 0.375000 0.187500
vt 0.375000 0.187500
vt 0.375000 0.250000
vt 0.562500 0.000000
vt 0.562500 0.000000
vt 0.625000 0.000000
vt 0.625000 0.000000
vt 0.562500 0.250000
vt 0.562500 0.250000
vt 0.375000 0.000000
vt 0.375000 0.000000
vn -0.036237 -0.895845 0.442888
vn -0.000000 -0.901795 0.432165
vn -0.000000 -0.901795 0.432165
vn -0.036108 -0.897379 0.439782
vn 0.879364 -0.100660 0.465389
vn 0.889635 0.000000 0.456673
vn 0.889634 0.000000 0.456673
vn 0.880804 -0.100652 0.462658
vn -0.000000 0.901794 0.432165
vn -0.036237 0.895844 0.442888
vn -0.036108 0.897379 0.439782
vn -0.000000 0.901795 0.432165
vn -0.889635 0.000000 0.456673
vn -0.879364 -0.100660 0.465389
vn -0.880805 -0.100652 0.462658
vn -0.889634 0.000000 0.456673
vn 0.880804 0.100652 0.462658
vn 0.879364 0.100660 0.465389
vn 0.874616 0.100679 0.474247
vn 0.874616 0.100679 0.474247
vn -0.874616 0.100679 0.474247
vn -0.879364 0.100660 0.465389
vn -0.880805 0.100652 0.462658
vn -0.874616 0.100679 0.474247
vn 0.036108 -0.897379 0.439782
vn 0.036237 -0.895845 0.442888
vn 0.036588 -0.891601 0.451342
vn 0.036588 -0.891601 0.451342
vn 0.036588 0.891601 0.451342
vn 0.036237 0.895844 0.442888
vn 0.036108 0.897378 0.439782
vn 0.036588 0.891601 0.451342
vn 0.874616 -0.100679 0.474247
vn 0.874616 -0.100679 0.474247
vn -0.874616 -0.100679 0.474247
vn -0.874616 -0.100679 0.474247
vn -0.036588 -0.891601 0.451342
vn -0.036588 -0.891601 0.451342
vn -0.036588 0.891601 0.451342
vn -0.036588 0.891601 0.451342
s 1
g polySurface10 polySurface8 polySurface6 polySurface3 polySurface1 pCube2 polySurface11
usemtl initialShadingGroup
f 331/390/641 332/391/642 333/392/643 334/393/644
s 2
f 335/394/645 336/395/646 337/396/647 338/397/648
s 3
f 339/398/649 340/399/650 341/400/651 342/401/652
s 4
f 343/402/653 344/403/654 345/404/655 346/405/656
s 2
f 350/406/657 347/407/658 348/408/659 349/409/660
s 4
f 351/410/661 352/411/662 353/412/663 354/413/664
s 1
f 358/414/665 355/415/666 356/416/667 357/417/668
s 3
f 348/408/669 359/418/670 360/419/671 349/409/672
s 2
f 337/396/647 336/395/646 347/407/658 350/406/657
s 4
f 353/412/663 352/411/662 343/402/653 346/405/656
s 2
f 356/416/673 335/394/645 338/397/648 357/417/674
s 4
f 345/404/655 344/403/654 361/420/675 362/421/676
s 1
f 361/420/677 331/390/641 334/393/644 362/421/678
s 3
f 341/400/651 340/399/650 351/410/679 354/413/680
s 1
f 333/392/643 332/391/642 355/415/666 358/414/665
s 3
f 360/419/671 359/418/670 339/398/649 342/401/652
g default
v 1.271781 0.039911 -0.904176
v 1.500000 0.036260 -0.907219
v 1.500000 0.087786 -0.796833
v 1.297139 0.091032 -0.798268
v 1.976588 0.271781 -0.904176
v 1.996738 0.500000 -0.907219
v 1.941545 0.500000 -0.796833
v 1.923634 0.297139 -0.798268
v 1.500000 0.963740 -0.907219
v 1.271781 0.960089 -0.904176
v 1.297139 0.908968 -0.798268
v 1.500000 0.912214 -0.796833
v 1.003262 0.500000 -0.907219
v 1.023412 0.271781 -0.904176
v 1.076366 0.297139 -0.798268
v 1.058455 0.500000 -0.796833
v 1.976588 0.728219 -0.904176
v 1.956438 0.956438 -0.901134
v 1.905722 0.905722 -0.799703
v 1.923634 0.702861 -0.798268
v 1.043562 0.956438 -0.901134
v 1.023412 0.728219 -0.904176
v 1.076366 0.702861 -0.798268
v 1.094278 0.905722 -0.799703
v 1.728219 0.039911 -0.904176
v 1.956438 0.043562 -0.901134
v 1.905722 0.094278 -0.799703
v 1.702861 0.091032 -0.798268
v 1.728219 0.960089 -0.904176
v 1.702861 0.908968 -0.798268
v 1.043562 0.043562 -0.901134
v 1.094278 0.094278 -0.799703
vt 0.437500 0.000000
vt 0.500000 0.000000
vt 0.500000 0.000000
vt 0.437500 0.000000
vt 0.625000 0.062500
vt 0.625000 0.125000
vt 0.625000 0.125000
vt 0.625000 0.062500
vt 0.500000 0.250000
vt 0.437500 0.250000
vt 0.437500 0.250000
vt 0.500000 0.250000
vt 0.375000 0.125000
vt 0.375000 0.062500
vt 0.375000 0.062500
vt 0.375000 0.125000
vt 0.625000 0.187500
vt 0.625000 0.187500
vt 0.625000 0.250000
vt 0.625000 0.250000
vt 0.375000 0.250000
vt 0.375000 0.187500
vt 0.375000 0.187500
vt 0.375000 0.250000
vt 0.562500 0.000000
vt 0.562500 0.000000
vt 0.625000 0.000000
vt 0.625000 0.000000
vt 0.562500 0.250000
vt 0.562500 0.250000
vt 0.375000 0.000000
vt 0.375000 0.000000
vn -0.012748 -0.898864 0.438042
vn -0.000000 -0.902843 0.429970
vn -0.000000 -0.902843 0.429970
vn -0.012769 -0.899781 0.436156
vn 0.883988 -0.076331 0.461237
vn 0.890789 -0.000000 0.454417
vn 0.890789 -0.000000 0.454417
vn 0.884817 -0.076410 0.459630
vn -0.000000 0.902843 0.429970
vn -0.012748 0.898864 0.438042
vn -0.012769 0.899781 0.436156
vn -0.000000 0.902843 0.429970
vn -0.890789 -0.000000 0.454417
vn -0.883988 -0.076331 0.461237
vn -0.884817 -0.076410 0.459630
vn -0.890789 -0.000000 0.454417
vn 0.884817 0.076410 0.459630
vn 0.883988 0.076331 0.461237
vn 0.880410 0.075989 0.468085
vn 0.880410 0.075989 0.468085
vn -0.880410 0.075989 0.468085
vn -0.883988 0.076331 0.461237
vn -0.884817 0.076410 0.459630
vn -0.880410 0.075989 0.468085
vn 0.012769 -0.899781 0.436156
vn 0.012748 -0.898864 0.438042
vn 0.012672 -0.895660 0.444560
vn 0.012672 -0.895659 0.444560
vn 0.012672 0.895660 0.444560
vn 0.012748 0.898864 0.438041
vn 0.012769 0.899781 0.436156
vn 0.012672 0.895660 0.444560
vn 0.880410 -0.075989 0.468085
vn 0.880410 -0.075989 0.468085
vn -0.880410 -0.075989 0.468085
vn -0.880410 -0.075989 0.468085
vn -0.012672 -0.895659 0.444560
vn -0.012672 -0.895659 0.444560
vn -0.012672 0.895659 0.444560
vn -0.012672 0.895659 0.444560
s 1
g polySurface8 polySurface6 polySurface3 polySurface1 pCube2 polySurface9
usemtl initialShadingGroup
f 363/422/681 364/423/682 365/424/683 366/425/684
s 2
f 367/426/685 368/427/686 369/428/687 370/429/688
s 3
f 371/430/689 372/431/690 373/432/691 374/433/692
s 4
f 375/434/693 376/435/694 377/436/695 378/437/696
s 2
f 382/438/697 379/439/698 380/440/699 381/441/700
s 4
f 383/442/701 384/443/702 385/444/703 386/445/704
s 1
f 390/446/705 387/447/706 388/448/707 389/449/708
s 3
f 380/440/709 391/450/710 392/451/711 381/441/712
s 2
f 369/428/687 368/427/686 379/439/698 382/438/697
s 4
f 385/444/703 384/443/702 375/434/693 378/437/696
s 2
f 388/448/713 367/426/685 370/429/688 389/449/714
s 4
f 377/436/695 376/435/694 393/452/715 394/453/716
s 1
f 393/452/717 363/422/681 366/425/684 394/453/718
s 3
f 373/432/691 372/431/690 383/442/719 386/445/720
s 1
f 365/424/683 364/423/682 387/447/706 390/446/705
s 3
f 392/451/711 391/450/710 371/430/689 374/433/692
g default
v 1.094278 0.094278 -0.799703
v 1.905722 0.094278 -0.799703
v 1.905722 0.905722 -0.799703
v 1.094278 0.905722 -0.799703
v 1.144993 0.144993 -0.698273
v 1.855007 0.144993 -0.698273
v 1.855007 0.855007 -0.698273
v 1.144993 0.855007 -0.698273
v 1.941545 0.500000 -0.796833
v 1.886352 0.500000 -0.686446
v 1.113648 0.500000 -0.686446
v 1.058455 0.500000 -0.796833
v 1.500000 0.087786 -0.796833
v 1.500000 0.139313 -0.686446
v 1.500000 0.860687 -0.686446
v 1.500000 0.912214 -0.796833
v 1.870680 0.677504 -0.692359
v 1.923634 0.702861 -0.798268
v 1.076366 0.702861 -0.798268
v 1.129320 0.677504 -0.692359
v 1.870680 0.322496 -0.692359
v 1.923634 0.297139 -0.798268
v 1.076366 0.297139 -0.798268
v 1.129320 0.322496 -0.692359
v 1.322496 0.142153 -0.692359
v 1.297139 0.091032 -0.798268
v 1.297139 0.908968 -0.798268
v 1.322496 0.857847 -0.692359
v 1.677504 0.142153 -0.692359
v 1.702861 0.091032 -0.798268
v 1.702861 0.908968 -0.798268
v 1.677504 0.857847 -0.692359
vt 0.437500 0.000000
vt 0.500000 0.000000
vt 0.500000 0.000000
vt 0.437500 0.000000
vt 0.625000 0.062500
vt 0.625000 0.125000
vt 0.625000 0.125000
vt 0.625000 0.062500
vt 0.500000 0.250000
vt 0.437500 0.250000
vt 0.437500 0.250000
vt 0.500000 0.250000
vt 0.375000 0.125000
vt 0.375000 0.062500
vt 0.375000 0.062500
vt 0.375000 0.125000
vt 0.625000 0.187500
vt 0.625000 0.187500
vt 0.625000 0.250000
vt 0.625000 0.250000
vt 0.375000 0.250000
vt 0.375000 0.187500
vt 0.375000 0.187500
vt 0.375000 0.250000
vt 0.562500 0.000000
vt 0.562500 0.000000
vt 0.625000 0.000000
vt 0.625000 0.000000
vt 0.562500 0.250000
vt 0.562500 0.250000
vt 0.375000 0.000000
vt 0.375000 0.000000
vn -0.022864 -0.897635 0.440146
vn -0.000000 -0.902391 0.430919
vn -0.000000 -0.902391 0.430919
vn -0.022837 -0.898797 0.437770
vn 0.882070 -0.086827 0.463048
vn 0.890291 0.000000 0.455392
vn 0.890291 0.000000 0.455392
vn 0.883141 -0.086882 0.460993
vn 0.000000 0.902391 0.430919
vn -0.022864 0.897635 0.440146
vn -0.022837 0.898797 0.437770
vn 0.000000 0.902391 0.430919
vn -0.890291 0.000000 0.455392
vn -0.882070 -0.086827 0.463048
vn -0.883141 -0.086882 0.460992
vn -0.890291 0.000000 0.455392
vn 0.883141 0.086882 0.460993
vn 0.882070 0.086827 0.463048
vn 0.877991 0.086616 0.470775
vn 0.877991 0.086616 0.470775
vn -0.877991 0.086616 0.470775
vn -0.882070 0.086827 0.463048
vn -0.883141 0.086882 0.460992
vn -0.877991 0.086616 0.470775
vn 0.022837 -0.898797 0.437770
vn 0.022864 -0.897635 0.440146
vn 0.022948 -0.893986 0.447508
vn 0.022948 -0.893986 0.447508
vn 0.022948 0.893986 0.447508
vn 0.022864 0.897635 0.440146
vn 0.022837 0.898797 0.437770
vn 0.022948 0.893986 0.447508
vn 0.877991 -0.086616 0.470775
vn 0.877991 -0.086616 0.470775
vn -0.877991 -0.086616 0.470775
vn -0.877991 -0.086616 0.470775
vn -0.022948 -0.893986 0.447508
vn -0.022948 -0.893986 0.447508
vn -0.022948 0.893986 0.447508
vn -0.022948 0.893986 0.447508
s 1
g polySurface14 polySurface12 polySurface10 polySurface8 polySurface6 polySurface3 polySurface1 pCube2 polySurface15
usemtl initialShadingGroup
f 420/454/721 407/455/722 408/456/723 419/457/724
s 2
f 416/458/725 403/459/726 404/460/727 415/461/728
s 3
f 410/462/729 421/463/730 422/464/731 409/465/732
s 4
f 406/466/733 417/467/734 418/468/735 405/469/736
s 2
f 411/470/737 412/471/738 397/472/739 401/473/740
s 4
f 398/474/741 413/475/742 414/476/743 402/477/744
s 1
f 423/478/745 424/479/746 396/480/747 400/481/748
s 3
f 397/472/749 425/482/750 426/483/751 401/473/752
s 2
f 404/460/727 403/459/726 412/471/738 411/470/737
s 4
f 414/476/743 413/475/742 406/466/733 405/469/736
s 2
f 396/480/753 416/458/725 415/461/728 400/481/754
s 4
f 418/468/735 417/467/734 395/484/755 399/485/756
s 1
f 395/484/757 420/454/721 419/457/724 399/485/758
s 3
f 422/464/731 421/463/730 398/474/759 402/477/760
s 1
f 408/456/723 407/455/722 424/479/746 423/478/745
s 3
f 426/483/751 425/482/750 410/462/729 409/465/732
g default
v 1.423927 0.346637 -0.268726
v 1.500000 0.345420 -0.244901
v 1.500000 0.432349 -0.099868
v 1.466707 0.432882 -0.120871
v 1.658863 0.423927 -0.268726
v 1.665580 0.500000 -0.244901
v 1.572465 0.500000 -0.099868
v 1.569525 0.466707 -0.120871
v 1.500000 0.654580 -0.244901
v 1.423927 0.653363 -0.268726
v 1.466707 0.567118 -0.120871
v 1.500000 0.567651 -0.099868
v 1.334420 0.500000 -0.244901
v 1.341137 0.423927 -0.268726
v 1.430475 0.466707 -0.120871
v 1.427535 0.500000 -0.099868
v 1.658863 0.576073 -0.268726
v 1.652146 0.652146 -0.292550
v 1.566586 0.566586 -0.141874
v 1.569525 0.533293 -0.120871
v 1.347854 0.652146 -0.292550
v 1.341137 0.576073 -0.268726
v 1.430475 0.533293 -0.120871
v 1.433414 0.566586 -0.141874
v 1.576073 0.346637 -0.268726
v 1.652146 0.347854 -0.292550
v 1.566586 0.433414 -0.141874
v 1.533293 0.432882 -0.120871
v 1.576073 0.653363 -0.268726
v 1.533293 0.567118 -0.120871
v 1.347854 0.347854 -0.292550
v 1.433414 0.433414 -0.141874
vt 0.437500 0.000000
vt 0.500000 0.000000
vt 0.500000 0.000000
vt 0.437500 0.000000
vt 0.625000 0.062500
vt 0.625000 0.125000
vt 0.625000 0.125000
vt 0.625000 0.062500
vt 0.500000 0.250000
vt 0.437500 0.250000
vt 0.437500 0.250000
vt 0.500000 0.250000
vt 0.375000 0.125000
vt 0.375000 0.062500
vt 0.375000 0.062500
vt 0.375000 0.125000
vt 0.625000 0.187500
vt 0.625000 0.187500
vt 0.625000 0.250000
vt 0.625000 0.250000
vt 0.375000 0.250000
vt 0.375000 0.187500
vt 0.375000 0.187500
vt 0.375000 0.250000
vt 0.562500 0.000000
vt 0.562500 0.000000
vt 0.625000 0.000000
vt 0.625000 0.000000
vt 0.562500 0.250000
vt 0.562500 0.250000
vt 0.375000 0.000000
vt 0.375000 0.000000
vn -0.236596 -0.803782 0.545854
vn 0.000000 -0.845556 0.533886
vn 0.000000 -0.845556 0.533886
vn -0.230562 -0.815616 0.530671
vn 0.772352 -0.298099 0.560900
vn 0.828337 -0.000000 0.560230
vn 0.828337 -0.000000 0.560231
vn 0.783837 -0.293507 0.547223
vn -0.000000 0.845556 0.533886
vn -0.236596 0.803782 0.545853
vn -0.230562 0.815616 0.530670
vn -0.000000 0.845556 0.533886
vn -0.828337 0.000000 0.560231
vn -0.772352 -0.298099 0.560900
vn -0.783837 -0.293507 0.547223
vn -0.828337 0.000000 0.560230
vn 0.783837 0.293507 0.547223
vn 0.772352 0.298099 0.560900
vn 0.759761 0.302904 0.575336
vn 0.759761 0.302904 0.575336
vn -0.759761 0.302904 0.575336
vn -0.772352 0.298099 0.560900
vn -0.783837 0.293507 0.547223
vn -0.759761 0.302904 0.575336
vn 0.230563 -0.815616 0.530670
vn 0.236596 -0.803782 0.545854
vn 0.242240 -0.792236 0.560074
vn 0.242240 -0.792236 0.560074
vn 0.242240 0.792236 0.560073
vn 0.236596 0.803783 0.545853
vn 0.230562 0.815616 0.530670
vn 0.242240 0.792236 0.560073
vn 0.759761 -0.302904 0.575336
vn 0.759761 -0.302904 0.575336
vn -0.759762 -0.302904 0.575336
vn -0.759762 -0.302904 0.575336
vn -0.242240 -0.792236 0.560074
vn -0.242240 -0.792236 0.560074
vn -0.242240 0.792236 0.560073
vn -0.242240 0.792236 0.560073
s 1
g polySurface18 polySurface16 polySurface14 polySurface12 polySurface10 polySurface8 polySurface6 polySurface3 polySurface1 pCube2 polySurface19
usemtl initialShadingGroup
f 427/486/761 428/487/762 429/488/763 430/489/764
s 2
f 431/490/765 432/491/766 433/492/767 434/493/768
s 3
f 435/494/769 436/495/770 437/496/771 438/497/772
s 4
f 439/498/773 440/499/774 441/500/775 442/501/776
s 2
f 446/502/777 443/503/778 444/504/779 445/505/780
s 4
f 447/506/781 448/507/782 449/508/783 450/509/784
s 1
f 454/510/785 451/511/786 452/512/787 453/513/788
s 3
f 444/504/789 455/514/790 456/515/791 445/505/792
s 2
f 433/492/767 432/491/766 443/503/778 446/502/777
s 4
f 449/508/783 448/507/782 439/498/773 442/501/776
s 2
f 452/512/793 431/490/765 434/493/768 453/513/794
s 4
f 441/500/775 440/499/774 457/516/795 458/517/796
s 1
f 457/516/797 427/486/761 430/489/764 458/517/798
s 3
f 437/496/771 436/495/770 447/506/799 450/509/800
s 1
f 429/488/763 428/487/762 451/511/786 454/510/785
s 3
f 456/515/791 455/514/790 435/494/769 438/497/772
g default
v 1.195708 0.195708 -0.596842
v 1.804292 0.195708 -0.596842
v 1.804292 0.804292 -0.596842
v 1.195708 0.804292 -0.596842
v 1.246423 0.246424 -0.495411
v 1.753577 0.246424 -0.495411
v 1.753577 0.753576 -0.495411
v 1.246423 0.753576 -0.495411
v 1.831159 0.500000 -0.576060
v 1.775966 0.500000 -0.465674
v 1.224034 0.500000 -0.465674
v 1.168841 0.500000 -0.576060
v 1.500000 0.190840 -0.576060
v 1.500000 0.242367 -0.465674
v 1.500000 0.757633 -0.465674
v 1.500000 0.809160 -0.576060
v 1.764771 0.626788 -0.480543
v 1.817726 0.652146 -0.586451
v 1.182274 0.652146 -0.586451
v 1.235229 0.626788 -0.480543
v 1.764771 0.373212 -0.480543
v 1.817726 0.347854 -0.586451
v 1.182274 0.347854 -0.586451
v 1.235229 0.373212 -0.480543
v 1.373212 0.244395 -0.480543
v 1.347854 0.193274 -0.586451
v 1.347854 0.806726 -0.586451
v 1.373212 0.755605 -0.480543
v 1.626788 0.244395 -0.480543
v 1.652146 0.193274 -0.586451
v 1.652146 0.806726 -0.586451
v 1.626788 0.755605 -0.480543
vt 0.437500 0.000000
vt 0.500000 0.000000
vt 0.500000 0.000000
vt 0.437500 0.000000
vt 0.625000 0.062500
vt 0.625000 0.125000
vt 0.625000 0.125000
vt 0.625000 0.062500
vt 0.500000 0.250000
vt 0.437500 0.250000
vt 0.437500 0.250000
vt 0.500000 0.250000
vt 0.375000 0.125000
vt 0.375000 0.062500
vt 0.375000 0.062500
vt 0.375000 0.125000
vt 0.625000 0.187500
vt 0.625000 0.187500
vt 0.625000 0.250000
vt 0.625000 0.250000
vt 0.375000 0.250000
vt 0.375000 0.187500
vt 0.375000 0.187500
vt 0.375000 0.250000
vt 0.562500 0.000000
vt 0.562500 0.000000
vt 0.625000 0.000000
vt 0.625000 0.000000
vt 0.562500 0.250000
vt 0.562500 0.250000
vt 0.375000 0.000000
vt 0.375000 0.000000
vn -0.054731 -0.893059 0.446599
vn 0.000000 -0.900974 0.433874
vn 0.000000 -0.900973 0.433874
vn -0.054379 -0.895201 0.442333
vn 0.875305 -0.119712 0.468519
vn 0.888730 0.000000 0.458430
vn 0.888730 0.000000 0.458430
vn 0.877356 -0.119548 0.464709
vn 0.000000 0.900974 0.433874
vn -0.054731 0.893059 0.446599
vn -0.054379 0.895201 0.442333
vn 0.000000 0.900974 0.433874
vn -0.888730 0.000000 0.458430
vn -0.875305 -0.119712 0.468519
vn -0.877356 -0.119548 0.464709
vn -0.888730 0.000000 0.458430
vn 0.877356 0.119548 0.464709
vn 0.875305 0.119712 0.468519
vn 0.869615 0.120149 0.478889
vn 0.869615 0.120149 0.478889
vn -0.869615 0.120149 0.478889
vn -0.875305 0.119712 0.468519
vn -0.877356 0.119548 0.464709
vn -0.869615 0.120149 0.478889
vn 0.054379 -0.895201 0.442333
vn 0.054731 -0.893059 0.446599
vn 0.055548 -0.887978 0.456518
vn 0.055548 -0.887978 0.456518
vn 0.055548 0.887978 0.456518
vn 0.054731 0.893059 0.446599
vn 0.054379 0.895201 0.442333
vn 0.055548 0.887978 0.456519
vn 0.869615 -0.120149 0.478889
vn 0.869615 -0.120149 0.478889
vn -0.869615 -0.120149 0.478889
vn -0.869615 -0.120149 0.478889
vn -0.055548 -0.887978 0.456518
vn -0.055548 -0.887978 0.456518
vn -0.055548 0.887978 0.456518
vn -0.055548 0.887978 0.456519
s 1
g polySurface16 polySurface14 polySurface12 polySurface10 polySurface8 polySurface6 polySurface3 polySurface1 pCube2 polySurface17
usemtl initialShadingGroup
f 484/518/801 471/519/802 472/520/803 483/521/804
s 2
f 480/522/805 467/523/806 468/524/807 479/525/808
s 3
f 474/526/809 485/527/810 486/528/811 473/529/812
s 4
f 470/530/813 481/531/814 482/532/815 469/533/816
s 2
f 475/534/817 476/535/818 461/536/819 465/537/820
s 4
f 462/538/821 477/539/822 478/540/823 466/541/824
s 1
f 487/542/825 488/543/826 460/544/827 464/545/828
s 3
f 461/536/829 489/546/830 490/547/831 465/537/832
s 2
f 468/524/807 467/523/806 476/535/818 475/534/817
s 4
f 478/540/823 477/539/822 470/530/813 469/533/816
s 2
f 460/544/833 480/522/805 479/525/808 464/545/834
s 4
f 482/532/815 481/531/814 459/548/835 463/549/836
s 1
f 459/548/837 484/518/801 483/521/804 463/549/838
s 3
f 486/528/811 485/527/810 462/538/839 466/541/840
s 1
f 472/520/803 471/519/802 488/543/826 487/542/825
s 3
f 490/547/831 489/546/830 474/526/809 473/529/812
